rangeen0.sfdir
StartChar: .notdef
Encoding: 0 0 56
Width: 512
VWidth: 1000
Flags: W
LayerCount: 2
Fore
SplineSet
22 800 m 1
 490 800 l 1
 490 0 l 1
 22 0 l 1
 22 800 l 1
172 570 m 1
 172 604 l 1
 230.66796875 649.33203125 286.66796875 649.33203125 340 604 c 1
 384.146484375 549.940429688 396.842773438 485.94921875 340 400 c 1
 246 400 l 1
 246 212 l 1025
250 152 m 1
 250 108 l 1025
EndSplineSet
EndChar
StartChar: exclam
Encoding: 33 33 0
Width: 109
Flags: W
LayerCount: 2
Fore
SplineSet
50 812 m 25
 56 323 l 1
 56 323 l 1025
59 203 m 1
 59 137 l 1025
EndSplineSet
EndChar
StartChar: quotedbl
Encoding: 34 34 1
Width: 520
Flags: W
LayerCount: 2
Fore
SplineSet
216.5 671 m 25
 213.5 737 l 25
 216.5 671 l 25
306.5 674 m 25
 303.5 740 l 25
 306.5 674 l 25
EndSplineSet
EndChar
StartChar: numbersign
Encoding: 35 35 2
Width: 523
Flags: W
LayerCount: 2
Fore
SplineSet
56 255 m 25
 467 264 l 1049
56 455 m 25
 467 464 l 1049
380 542 m 25
 326 191 l 1049
179 542 m 25
 125 191 l 1049
EndSplineSet
EndChar
StartChar: dollar
Encoding: 36 36 3
Width: 541
Flags: W
LayerCount: 2
Fore
SplineSet
250 203 m 1
 250 -1 l 1025
283 803 m 1
 283 611 l 1025
340 635 m 0
 318.022007921 647.155363389 300.300385899 674.830397539 283 683 c 1
 206.127271046 663.183256934 165.843412559 570.82464368 193 500 c 1
 257.971950675 420.958926386 410.21634881 353.505712199 361 212 c 1
 360.855498998 164.91360448 319.476952908 141.432892021 280 134 c 0
 227.349801801 124.086792184 218.492282849 144.666288792 184 173 c 1
 169 227 l 1025
EndSplineSet
EndChar
StartChar: percent
Encoding: 37 37 4
Width: 676
Flags: W
LayerCount: 2
Fore
SplineSet
437 317 m 4
 437 352 460 380 488 380 c 4
 516 380 539 352 539 317 c 4
 539 282 516 254 488 254 c 4
 460 254 437 282 437 317 c 4
137 617 m 0
 137 652 160 680 188 680 c 0
 216 680 239 652 239 617 c 0
 239 582 216 554 188 554 c 0
 160 554 137 582 137 617 c 0
479 647 m 25
 149 182 l 1049
EndSplineSet
EndChar
StartChar: ampersand
Encoding: 38 38 5
Width: 577
Flags: W
LayerCount: 2
Fore
SplineSet
502 272 m 0
 502 223.856128106 444.490035506 98 385 98 c 0
 289.596598231 98 223 112.129812114 223 215 c 0
 223 372.104209093 436.629986575 403.728156325 421 563 c 0
 417.705080451 596.57571094 429.313056747 752 373 752 c 0
 329.061636077 752 329.168465359 727.434844517 304 713 c 1
 277 644 l 1
 277 491 l 1
 290.356714052 461.134357554 285.522869072 428.731995699 301 401 c 0
 330.144808383 348.778195811 350.650599054 268.620169815 385 218 c 2
 487.351091703 67.1668122271 l 1025
EndSplineSet
EndChar
StartChar: quotesingle
Encoding: 39 39 6
Width: 307
Flags: W
LayerCount: 2
Fore
SplineSet
157 728 m 25
 154 617 l 1053
EndSplineSet
EndChar
StartChar: parenleft
Encoding: 40 40 7
Width: 391
Flags: W
LayerCount: 2
Fore
SplineSet
222.5 -49 m 0
 192.5 -49 168.5 182 168.5 467 c 0
 168.5 752 192.5 983 222.5 983 c 1024
EndSplineSet
EndChar
StartChar: parenright
Encoding: 41 41 8
Width: 391
Flags: W
LayerCount: 2
Fore
SplineSet
142 -49 m 0
 172 -49 196 182 196 467 c 0
 196 752 172 983 142 983 c 1024
EndSplineSet
EndChar
StartChar: asterisk
Encoding: 42 42 9
Width: 512
Flags: W
LayerCount: 2
Fore
SplineSet
369.5 568 m 25
 142.5 336 l 1049
140.5 565 m 25
 371.5 339 l 1049
254.5 614 m 25
 257.5 290 l 1049
EndSplineSet
EndChar
StartChar: plus
Encoding: 43 43 10
Width: 514
Flags: W
LayerCount: 2
Fore
SplineSet
231 554 m 1
 231 273 l 1049
100 411 m 1
 379 411 l 1025
EndSplineSet
EndChar
StartChar: comma
Encoding: 44 44 11
Width: 295
Flags: W
LayerCount: 2
Fore
SplineSet
156.5 26 m 5
 156.5 26 165.5 6 165.5 -7 c 31
 165.5 -33 129.5 -64 129.5 -64 c 1029
EndSplineSet
EndChar
StartChar: hyphen
Encoding: 45 45 13
Width: 571
Flags: W
LayerCount: 2
Fore
SplineSet
85 411 m 1
 433 411 l 1025
EndSplineSet
EndChar
StartChar: period
Encoding: 46 46 14
Width: 142
Flags: W
LayerCount: 2
Fore
SplineSet
67 29 m 1053
EndSplineSet
EndChar
StartChar: slash
Encoding: 47 47 15
Width: 512
Flags: W
LayerCount: 2
Fore
SplineSet
140.5 107 m 25
 371.5 665 l 1053
EndSplineSet
EndChar
StartChar: zero
Encoding: 48 48 16
Width: 334
Flags: W
LayerCount: 2
Fore
SplineSet
95 205 m 0
 95 316 127 406 167 406 c 0
 207 406 239 316 239 205 c 0
 239 94 207 4 167 4 c 0
 127 4 95 94 95 205 c 0
EndSplineSet
EndChar
StartChar: one
Encoding: 49 49 17
Width: 259
Flags: W
LayerCount: 2
Fore
SplineSet
67 349 m 25
 130 411 l 25
 130 0 l 1049
50 0 m 25
 209 0 l 1049
EndSplineSet
EndChar
StartChar: two
Encoding: 50 50 18
Width: 550
Flags: W
LayerCount: 2
Fore
SplineSet
396 0 m 25
 141 0 l 25
 230 78 301 102 369 199 c 24
 402 245 403 290 384 343 c 24
 369 384 338 413 294 411 c 24
 227 409 201 364 141 334 c 1052
EndSplineSet
EndChar
StartChar: three
Encoding: 51 51 19
Width: 1024
LayerCount: 2
Fore
SplineSet
348.815429688 411 m 25
 636.815429688 411 l 25
 420.815429688 179 l 25
 502.815429688 122 567.815429688 110 629.815429688 32 c 24
 669.815429688 -19 689.815429688 -70 665.815429688 -130 c 24
 645.815429688 -180 593.815429688 -189 539.815429688 -190 c 24
 461.815429688 -191 422.815429688 -157 347.815429688 -136 c 1052
EndSplineSet
EndChar
StartChar: four
Encoding: 52 52 20
Width: 571
Flags: W
LayerCount: 2
Fore
SplineSet
295 411 m 25
 79 0 l 25
 399 0 l 1049
295 -205 m 1
 295 411 l 1025
343 -199 m 1049
EndSplineSet
EndChar
StartChar: five
Encoding: 53 53 21
Width: 685
Flags: W
LayerCount: 2
Fore
SplineSet
508 411 m 25
 178 411 l 25
 184 185 l 25
 261 189 312 225 382 194 c 24
 441 168 456 118 475 56 c 24
 493 -5 498 -48 472 -106 c 24
 450 -155 414 -172 364 -193 c 24
 319 -212 286 -214 238 -205 c 24
 198 -197 183 -172 148 -151 c 1052
EndSplineSet
EndChar
StartChar: six
Encoding: 54 54 22
Width: 560
Flags: W
LayerCount: 2
Fore
SplineSet
210 330 m 5
 247.743164062 319.985351562 287 304.329101562 287 197 c 4
 287 83 253 -10 212 -10 c 4
 171 -10 143.951360571 83.2121333963 137 197 c 4
 125.592303746 383.734295596 252.569335938 543.4375 312 698 c 1028
EndSplineSet
EndChar
StartChar: seven
Encoding: 55 55 23
Width: 360
Flags: W
LayerCount: 2
Fore
SplineSet
76 411 m 25
 260 411 l 25
 76 -198 l 1053
EndSplineSet
EndChar
StartChar: eight
Encoding: 56 56 24
Width: 360
Flags: W
LayerCount: 2
Fore
SplineSet
62 582 m 4
 62 689 88 776 120 776 c 4
 152 776 178 689 178 582 c 4
 178 475 152 388 120 388 c 4
 88 388 62 475 62 582 c 4
62 194 m 0
 62 301 88 388 120 388 c 0
 152 388 178 301 178 194 c 0
 178 87 152 0 120 0 c 0
 88 0 62 87 62 194 c 0
EndSplineSet
EndChar
StartChar: nine
Encoding: 57 57 25
Width: 564
Flags: W
LayerCount: 2
Fore
SplineSet
315 108 m 1
 277.256835938 118.014648438 184 90.822265625 184 198.151367188 c 0
 184 312.151367188 218 405.151367188 259 405.151367188 c 0
 300 405.151367188 330.801757812 307.779296875 340 194.151367188 c 0
 353.65625 25.4482421875 253.7421875 -70.583984375 206 -200 c 1024
EndSplineSet
EndChar
StartChar: colon
Encoding: 58 58 26
Width: 142
Flags: W
LayerCount: 2
Fore
SplineSet
67 439 m 1049
67 29 m 1049
EndSplineSet
EndChar
StartChar: semicolon
Encoding: 59 59 27
Width: 231
Flags: W
LayerCount: 2
Fore
SplineSet
156.5 26 m 1
 156.5 26 165.5 6 165.5 -7 c 27
 165.5 -33 129.5 -64 129.5 -64 c 1025
131 388 m 1049
EndSplineSet
EndChar
StartChar: less
Encoding: 60 60 54
Width: 565
Flags: W
LayerCount: 2
Fore
SplineSet
376 635 m 25
 142 411 l 25
 364 176 l 1053
EndSplineSet
EndChar
StartChar: equal
Encoding: 61 61 57
Width: 512
Flags: W
LayerCount: 2
Fore
SplineSet
82 372 m 1
 430 372 l 1025
82 472 m 1
 430 472 l 1025
EndSplineSet
EndChar
StartChar: greater
Encoding: 62 62 55
Width: 565
Flags: W
LayerCount: 2
Fore
SplineSet
142 635 m 25
 376 411 l 25
 154 176 l 1053
EndSplineSet
EndChar
StartChar: question
Encoding: 63 63 94
Width: 306
VWidth: 1000
Flags: W
LayerCount: 2
Fore
SplineSet
50 570 m 1
 50 604 l 1
 108.66796875 649.33203125 164.66796875 649.33203125 218 604 c 1
 262.146484375 549.940429688 274.842773438 485.94921875 218 400 c 1
 124 400 l 1
 124 212 l 1025
128 152 m 1
 128 108 l 1025
EndSplineSet
EndChar
StartChar: at
Encoding: 64 64 95
Width: 700
Flags: W
LayerCount: 2
Fore
SplineSet
388 296 m 3
 339.033766607 296 303.609880087 350 247 350 c 3
 161.648656487 350 166 238.728177513 166 176 c 3
 166 52.7345800095 276.289666537 2 379 2 c 3
 432.703293196 2 451 59.6225257811 451 110 c 3
 451 233.3107385 515.644402198 38 580 38 c 3
 654.237206792 38 664 108.061177586 664 185 c 3
 664 329.186938511 529.301104732 455 382 455 c 3
 176.486376097 455 46 375.356720332 46 179 c 3
 46 8.67903568784 158.202695184 -169 328 -169 c 2
 328 -169 498 -172 607 -172 c 27
 633 -172 655 -153 655 -127 c 27
 655 -119 664 -117 664 -109 c 1048
EndSplineSet
EndChar
StartChar: A
Encoding: 65 65 28
Width: 482
Flags: W
LayerCount: 2
Fore
SplineSet
107.59375 -4 m 1
 113.59375 -4 l 0
 161.8203125 32.5498046875 183.623046875 96.494140625 185.59375 155 c 0
 193.393554688 200.626953125 185.334960938 252.243164062 179.59375 299 c 0
 172.107421875 359.961914062 161.59375 417.069335938 161.59375 479 c 0
 157.99609375 578.379882812 201.16015625 677.874023438 266.59375 752 c 0
 273.461914062 759.78125 298.298828125 788 308.59375 788 c 0
 313.544921875 788 311.59375 773 311.59375 773 c 0
 326.59375 677 l 0
 353.59375 524 l 0
 374.59375 371 l 0
 380.59375 230 l 0
 384.288085938 187.931640625 384.384765625 145.934570312 389.59375 104 c 0
 396.30859375 81.1201171875 402.483398438 58.716796875 407.59375 35 c 0
 437.640625 -52.3056640625 401.60546875 6.1875 395.59375 56 c 0
 378.436523438 94.0224609375 378.806640625 137.21484375 368.59375 176 c 0
 348.489257812 223.03125 340.69140625 275.111328125 314.59375 317 c 0
 283.982421875 380.6484375 212.7265625 409.740234375 149.59375 428 c 0
 134.264648438 432.43359375 122.825195312 437 107.59375 437 c 0
 106.239257812 437 99.9267578125 444.5 98.59375 446 c 0
 62.59375 452 l 1025
EndSplineSet
EndChar
StartChar: B
Encoding: 66 66 29
Width: 547
Flags: W
LayerCount: 2
Fore
SplineSet
143 5 m 0
 121.430664062 60.41015625 105.01953125 115.831054688 89 173 c 0
 77 293 l 0
 86 500 l 0
 104 611 l 0
 119 671 l 0
 120.170898438 676.072265625 125 692.234375 125 698 c 0
 134.038085938 737.407226562 170.927734375 780.296875 218 773 c 0
 233.583984375 770.583984375 258.767578125 764 272 764 c 0
 293.91796875 767.758789062 310.194335938 746.942382812 332 743 c 0
 410.629882812 728.784179688 461 656.575195312 461 578 c 0
 439.73046875 500.905273438 345.153320312 441.404296875 266 449 c 0
 201.791992188 455.162109375 245 470 245 470 c 0
 245 470 242 446.0703125 242 443 c 0
 242 415.579101562 470 334.350585938 470 194 c 0
 470 87.6669921875 409.061523438 32 311 32 c 0
 276.642578125 32 245.223632812 56.546875 215 68 c 0
 182 158 l 0
 179 227 l 1025
EndSplineSet
EndChar
StartChar: C
Encoding: 67 67 30
Width: 346
Flags: W
LayerCount: 2
Fore
SplineSet
323 686 m 0
 319.60546875 714.020507812 307.704101562 746.169921875 281 754 c 0
 261.022460938 759.857421875 238.592773438 780 219 780 c 0
 64.2841796875 780 82.9072265625 604.85546875 19 522 c 1
 5 388 l 1
 9 246 l 1
 17 190 l 2
 20.875 172.952148438 24.21484375 156.14453125 33 140 c 0
 48.90625 110.768554688 72.130859375 18 115 18 c 2
 129 18 l 1
 160.303710938 4.6357421875 194.373046875 -2.970703125 231 -2 c 0
 275.849609375 -0.810546875 291.073242188 18.7529296875 321 44 c 1
 339 92 l 1
 341 152 l 1025
EndSplineSet
EndChar
StartChar: D
Encoding: 68 68 31
Width: 466
Flags: W
LayerCount: 2
Fore
SplineSet
56.3740234375 678 m 0
 67.041015625 729.8984375 103.568359375 762 170.374023438 762 c 0
 239.150390625 762 305.30859375 731.978515625 327.490234375 667.015625 c 2
 409.625976562 426.4765625 l 1
 396.930664062 285.58984375 l 1
 361.188476562 202.999023438 336.713867188 74 236.374023438 74 c 0
 169.563476562 74 73.0947265625 101.850585938 66.3740234375 30 c 0
 64.783203125 6.4453125 98.990234375 5.4716796875 120.374023438 -2 c 1
 180.829101562 102.400390625 120.799804688 274.364257812 122.374023438 408 c 1
 122.374023438 676 l 1025
EndSplineSet
EndChar
StartChar: E
Encoding: 69 69 32
Width: 332
Flags: W
LayerCount: 2
Fore
SplineSet
291.822265625 740 m 0
 271.716796875 741.815429688 251.627929688 763.665039062 229.822265625 764 c 0
 198.588867188 764.48046875 168.158203125 770 137.822265625 770 c 0
 101.545898438 765.359375 68.3740234375 744.873046875 51.822265625 714 c 0
 25.849609375 679.380859375 7.6708984375 636.430664062 7.822265625 594 c 0
 13.05859375 545.7421875 -11.447265625 484.508789062 35.822265625 452 c 0
 42.2265625 447.595703125 51.9619140625 432 61.822265625 432 c 0
 72.4853515625 433.689453125 82.591796875 427.694335938 93.822265625 426 c 0
 110.383789062 423.501953125 121.206054688 412 139.822265625 412 c 0
 167.822265625 412 l 0
 132.112304688 403.0234375 82.1796875 371.681640625 55.822265625 334 c 0
 15.33984375 302.921875 1.66796875 261.470703125 5.822265625 212 c 0
 4.55078125 178.646484375 2.44140625 144.729492188 19.822265625 116 c 0
 40.9326171875 46.3525390625 114.819335938 7.271484375 183.822265625 6 c 0
 230.774414062 -8.02734375 273.6796875 16.76171875 301.822265625 54 c 0
 303.490234375 56.2080078125 321.822265625 80 321.822265625 80 c 0
 327.822265625 92 l 1025
EndSplineSet
EndChar
StartChar: F
Encoding: 70 70 33
Width: 656
Flags: W
LayerCount: 2
Fore
SplineSet
140 424 m 0
 142.078125 424 144.745117188 424 148 424 c 0
 181.150390625 424 214.9609375 410.938476562 250 404 c 0
 336 400 l 1025
544 692 m 0
 536.475585938 704.713867188 538.103515625 726.416015625 528 740 c 0
 527.243164062 775.774414062 493.924804688 787.586914062 462 782 c 0
 384.397460938 768.419921875 299.263671875 670 232 670 c 0
 187.489257812 670 167.759765625 726.698242188 144 748 c 0
 146 804 l 0
 196 756 l 0
 240.647460938 702.903320312 225.400390625 617.764648438 232 550 c 0
 234.264648438 445.58203125 218.353515625 342.612304688 224 238 c 0
 209.014648438 169.98828125 259.169921875 -0.8115234375 146 6 c 0
 133.578125 6.6328125 121.635742188 6.4482421875 112 12 c 1024
EndSplineSet
EndChar
StartChar: G
Encoding: 71 71 34
Width: 423
Flags: W
LayerCount: 2
Fore
SplineSet
371 708 m 0
 340 733 301 768 255 770 c 0
 70 802 -9 636 7 484 c 0
 14 360 15 55 143 3 c 4
 178 4 216 18 241 45 c 4
 264 68 273 103 273 135 c 4
 273 173 231 199 231 233 c 4
 231 240 229 247 229 253 c 4
 229 279 259 291 283 291 c 4
 343 291 393 308 393 254 c 0
 393 199 349 153 349 98 c 0
 349 81 364 73 373 60 c 0
 419 56 l 1025
EndSplineSet
EndChar
StartChar: H
Encoding: 72 72 35
Width: 794
Flags: W
LayerCount: 2
Fore
SplineSet
71 666 m 1
 61 716 l 0
 61 782 l 0
 73.71484375 785.436523438 83.431640625 792 99 792 c 0
 178.450195312 792 224.211914062 730 303 730 c 0
 327.885742188 730 349 743.822265625 349 772 c 0
 316.333984375 759.887695312 311.588867188 652.040039062 317 604 c 0
 310.58984375 475.98828125 323.99609375 349.41015625 327 222 c 0
 328.306640625 166.583984375 337.319335938 4 247 4 c 0
 206.60546875 5.1064453125 152.547851562 39.9599609375 163 86 c 0
 229.739257812 343.435546875 661.784179688 404.926757812 601 750 c 0
 600.077148438 755.237304688 602.590820312 784 595 784 c 0
 559.90234375 784 543 648.291992188 543 628 c 0
 540.028320312 582.844726562 546.83984375 538.865234375 551 494 c 0
 591.405273438 365.994140625 520.952148438 111.120117188 663 54 c 0
 671.934570312 50.4072265625 727 22 727 22 c 0
 733 20 l 1025
EndSplineSet
EndChar
StartChar: I
Encoding: 73 73 36
Width: 552
Flags: W
LayerCount: 2
Fore
SplineSet
292.94921875 612 m 1
 194.94921875 612 l 1
 114.15234375 682.495117188 214.206054688 813.663085938 292.94921875 824 c 1
 292.423828125 596.830078125 386.94921875 378.446289062 386.94921875 144 c 0
 386.94921875 38.763671875 287.284179688 -72.0166015625 232.94921875 46 c 1
 220.94921875 96 l 1025
EndSplineSet
EndChar
StartChar: J
Encoding: 74 74 37
Width: 1024
LayerCount: 2
Fore
SplineSet
332 694 m 0
 333.671875 723.260742188 324.418945312 748.349609375 322 776 c 1
 410.044921875 779.474609375 526.956054688 753.94921875 604 774 c 1
 533.599609375 632.739257812 578.764648438 458.89453125 566 304 c 0
 561.1484375 201.665039062 602.950195312 32.7373046875 468 14 c 0
 429.728515625 12.669921875 413.889648438 60.3623046875 416 92 c 0
 423.694335938 207.348632812 624.231445312 362.047851562 702 452 c 1
 702 466 l 1025
EndSplineSet
EndChar
StartChar: K
Encoding: 75 75 38
Width: 808
Flags: W
LayerCount: 2
Fore
SplineSet
33 742 m 1
 81 742 l 2
 143.05078125 742 207 776 207 776 c 1
 238.904296875 529.34375 220.9609375 64.8076171875 115 -4 c 1
 210.452148438 187.212890625 287.538085938 404.155273438 467 536 c 0
 497.287109375 558.250976562 616.69140625 706 649 706 c 1
 735.212890625 506.162109375 519.8984375 390.161132812 357 408 c 1
 297.217773438 301.008789062 517.182617188 30 725 30 c 0
 759.354492188 30 758.341796875 71.8681640625 775 88 c 1024
EndSplineSet
EndChar
StartChar: L
Encoding: 76 76 39
Width: 644
Flags: W
LayerCount: 2
Fore
SplineSet
67.95703125 782 m 0
 73.2724609375 730.881835938 80.630859375 654.08984375 129.95703125 626 c 1
 214.342773438 622.883789062 336.356445312 678.282226562 305.95703125 780 c 1
 127.28515625 788.169921875 206.293945312 563.235351562 211.95703125 446 c 0
 218.631835938 379.326171875 236.934570312 315.221679688 235.95703125 248 c 0
 235.375 208.072265625 226.54296875 18 159.95703125 18 c 1
 113.373046875 25.9609375 83.6923828125 83.7109375 77.95703125 126 c 1
 68.3408203125 158.143554688 91.33203125 158.942382812 119.95703125 154 c 1
 233.456054688 156.830078125 263.03515625 1.470703125 377.95703125 8 c 0
 472.208984375 12.9775390625 579.528320312 30.626953125 575.95703125 158 c 1
 547.95703125 186 l 1025
EndSplineSet
EndChar
StartChar: M
Encoding: 77 77 40
Width: 748
Flags: W
LayerCount: 2
Fore
SplineSet
54 74 m 0
 55.7802734375 54.0263671875 65.333984375 15.259765625 82 2 c 1
 284.424804688 215.301757812 195.80078125 535.747070312 242 812 c 1
 239.80078125 647.453125 323.849609375 501.865234375 392 372 c 1
 385.567382812 454.967773438 560 934.788085938 560 748 c 0
 560 483.822265625 529.079101562 207.864257812 656 40 c 1
 694 -4 l 1025
EndSplineSet
EndChar
StartChar: N
Encoding: 78 78 41
Width: 516
Flags: W
LayerCount: 2
Fore
SplineSet
5 60 m 0
 13.7587890625 38.130859375 11.0107421875 -2.9208984375 39 -8 c 1
 124.569335938 -8 111 117.495117188 111 172 c 0
 97.83984375 399.487304688 63.982421875 606.647460938 199 754 c 0
 252.637695312 812.5390625 215.220703125 684.673828125 223 660 c 0
 260.274414062 504.154296875 195.879882812 317.15234375 247 172 c 0
 254.116210938 144.815429688 305 37.9541015625 305 18 c 1
 330.728515625 291.831054688 417.479492188 516.680664062 493 748 c 1
 511 772 l 1025
EndSplineSet
EndChar
StartChar: O
Encoding: 79 79 42
Width: 418
Flags: W
LayerCount: 2
Fore
SplineSet
245.48046875 452 m 0
 364.713867188 542.124023438 304.374023438 797.493164062 141.48046875 766 c 0
 58.654296875 750.33203125 17.48046875 661.666992188 17.48046875 578 c 2
 17.48046875 532 l 1
 10.3837890625 326.950195312 -38.3134765625 118.184570312 121.48046875 14 c 1
 133.48046875 14 l 2
 169.627929688 14 212.206054688 2 253.48046875 2 c 0
 350.576171875 2 413.48046875 314.524414062 413.48046875 376 c 1
 405.463867188 493.932617188 359.538085938 607.18359375 299.48046875 706 c 1024
EndSplineSet
EndChar
StartChar: P
Encoding: 80 80 43
Width: 628
Flags: W
LayerCount: 2
Fore
SplineSet
110 548 m 0
 88.013671875 598.334960938 79.439453125 654.538085938 82 710 c 0
 88.3203125 846.913085938 167.328125 856 306 856 c 0
 462.90234375 856 580 778.404296875 580 614 c 0
 580 504.466796875 449.436523438 422 350 422 c 0
 276.111328125 422 242 506.924804688 242 570 c 0
 242 579.1953125 240.94921875 598 254 598 c 1024
198 671 m 1
 200 395 l 0
 202.692382812 324.665039062 208 255.689453125 208 185 c 0
 208 139.159179688 211.552734375 -3 132 -3 c 0
 88.2578125 -3 79.9638671875 45.994140625 56 69 c 0
 48 143 l 1025
EndSplineSet
EndChar
StartChar: Q
Encoding: 81 81 44
Width: 680
Flags: W
LayerCount: 2
Fore
SplineSet
392.288085938 88 m 0
 508.04296875 171.086914062 533.497070312 311.120117188 524.288085938 446 c 1
 536.262695312 577.221679688 492.069335938 773.014648438 324.288085938 748 c 1
 149.967773438 762.013671875 156.537109375 541.837890625 154.288085938 418 c 0
 148.9375 276.797851562 193.774414062 61.2919921875 374.288085938 56 c 0
 403.760742188 54.0869140625 447.432617188 72.55859375 432.288085938 104 c 1
 415.131835938 66.650390625 492.54296875 38.9658203125 490.288085938 -8 c 0
 490.288085938 -44.2314453125 458.598632812 -61.1552734375 442.288085938 -88 c 1
 370.288085938 -88 l 1025
EndSplineSet
EndChar
StartChar: R
Encoding: 82 82 45
Width: 658
Flags: W
LayerCount: 2
Fore
SplineSet
100.94921875 538 m 4
 107.96875 648.001953125 123.951171875 805.856445312 274.94921875 784 c 4
 446.079101562 784 516.94921875 680.836914062 516.94921875 548 c 0
 516.94921875 464.52734375 408.135742188 380 326.94921875 380 c 0
 289.600585938 405.765625 264.185546875 459.193359375 266.94921875 506 c 0
 270.221679688 547.796875 326.913085938 468.544921875 332.94921875 444 c 0
 369.560546875 356.201171875 355.59765625 257.8515625 372.94921875 166 c 0
 383.28125 111.305664062 417.137695312 2 486.94921875 2 c 0
 526.80078125 2 552.219726562 52.8505859375 578.94921875 74 c 0
 590.94921875 102 l 1025
82.94921875 62 m 0
 157.015625 145.71484375 25.94921875 0 80.94921875 58 c 0
 80.94921875 21.654296875 133.400390625 -16 166.94921875 -16 c 0
 266.7578125 -16 246.94921875 205.834960938 246.94921875 258 c 0
 246.94921875 388.110351562 209.783203125 511.861328125 190.94921875 640 c 0
 192.94921875 654 l 1029
EndSplineSet
EndChar
StartChar: S
Encoding: 83 83 46
Width: 442
Flags: W
LayerCount: 2
Fore
SplineSet
5 -6 m 1
 5 0 l 1
 104.25390625 51.2978515625 124.0703125 167.5234375 149 268 c 0
 192.467773438 443.188476562 305 533.208984375 305 716 c 4
 305 770.840820312 265.170898438 784 217 784 c 4
 112.267578125 784 85 779.380859375 85 678 c 4
 85 404.118164062 437 413.1953125 437 154 c 0
 437 70.529296875 367.63671875 -24 277 -24 c 0
 209.731445312 -24 175 114.380859375 175 162 c 0
 175 307.6875 388.752929688 170.1015625 279 108 c 1
 252.323242188 108 233 126 233 126 c 1025
EndSplineSet
EndChar
StartChar: T
Encoding: 84 84 47
Width: 381
Flags: W
LayerCount: 2
Fore
SplineSet
50.12109375 650 m 0
 24.9375 670.256835938 12.9765625 708.107421875 6.12109375 746 c 0
 0.392578125 777.662109375 16.8583984375 784 50.12109375 784 c 0
 146.259765625 784 317.967773438 598.889648438 376.12109375 760 c 1
 368.174804688 785.63671875 346.765625 785.86328125 342.12109375 758 c 2
 330.12109375 686 l 1
 330.12109375 30 l 1
 319.215820312 11.6875 307.338867188 -12.6953125 282.12109375 4 c 0
 260.384765625 18.390625 247.638671875 26.5947265625 228.12109375 40 c 1
 228.12109375 74 l 1025
EndSplineSet
EndChar
StartChar: U
Encoding: 85 85 48
Width: 683
Flags: W
LayerCount: 2
Fore
SplineSet
5 771 m 1
 13.6962890625 699.497070312 135.001953125 650.381835938 160 717 c 0
 188.782226562 793.702148438 260 754.234375 260 673 c 0
 260 562.165039062 231.799804688 454.580078125 240 343 c 0
 244.719726562 278.774414062 254.263671875 -1 358 -1 c 0
 602.26953125 -1 585.029296875 595.27734375 513 781 c 5
 478.451171875 558.641601562 451.389648438 219.264648438 566 37 c 0
 585.786132812 5.5341796875 620.760742188 -1.296875 662 11 c 1
 678 39 l 1025
EndSplineSet
EndChar
StartChar: V
Encoding: 86 86 49
Width: 688
Flags: W
LayerCount: 2
Fore
SplineSet
5 683 m 0
 9.009765625 727.932617188 47.5380859375 796.995117188 110 794 c 1
 140.073242188 764.286132812 161.041992188 711.799804688 167 668 c 0
 184.250976562 560.953125 294.08203125 -117.392578125 335 74 c 0
 370.1796875 238.555664062 316.047851562 773 626 773 c 1
 652.133789062 739.29296875 687.024414062 701.72265625 683 656 c 0
 678.399414062 603.737304688 690.06640625 554 626 554 c 0
 548.127929688 554 581.217773438 600.1484375 551 632 c 1024
EndSplineSet
EndChar
StartChar: W
Encoding: 87 87 50
Width: 775
Flags: W
LayerCount: 2
Fore
SplineSet
5 713 m 0
 14.2451171875 723.046875 19.513671875 735.33984375 32 746 c 0
 62.3740234375 771.93359375 53.83203125 785 104 785 c 0
 141.465820312 785 148.8203125 704 206 704 c 0
 250.984375 689.217773438 269.986328125 816.572265625 269 761 c 0
 264.977539062 534.27734375 188 323.069335938 188 98 c 0
 188 11.82421875 212.797851562 -4 305 -4 c 0
 388.974609375 -4 378.860351562 43.2138671875 431 77 c 0
 449 173 l 0
 452 38 l 0
 460.47265625 8.25 467.9765625 -29.3740234375 512 -13 c 0
 748.197265625 0.841796875 712.9765625 339.733398438 704 512 c 0
 702.557617188 539.682617188 665.982421875 788 605 788 c 0
 536.956054688 788 497 694.569335938 497 644 c 0
 500.514648438 565.197265625 576.581054688 519.837890625 650 533 c 0
 666.22265625 535.908203125 688.61328125 533 707 533 c 0
 709.536132812 533 731.125976562 547.354492188 737 551 c 0
 770 581 l 1025
EndSplineSet
EndChar
StartChar: X
Encoding: 88 88 51
Width: 796
Flags: W
LayerCount: 2
Fore
SplineSet
56 524 m 0
 55.25 526.400390625 55.25 529.400390625 56 533 c 0
 45.240234375 570.678710938 41.1845703125 609.752929688 41 650 c 0
 40.9375 663.58203125 41 677.133789062 41 692 c 0
 49.91796875 725.913085938 88.9033203125 752.076171875 122 764 c 0
 147.5234375 773.1953125 174.297851562 776 203 776 c 0
 310.014648438 776 275.612304688 715.577148438 332 668 c 0
 344 584 l 0
 338 455 l 0
 275 281 l 0
 227 185 l 0
 186.935546875 137.196289062 132.784179688 -25 50 -25 c 0
 25.595703125 -25 5 54.37109375 5 74 c 0
 11.8876953125 103.076171875 28.3017578125 132.426757812 53 155 c 0
 262.305664062 339.165039062 633.673828125 410.77734375 680 737 c 0
 682.15234375 752.159179688 680 771.301757812 680 788 c 0
 680 804.793945312 643.263671875 797 632 797 c 0
 428.424804688 797 392 557.505859375 392 410 c 0
 380.575195312 238.96875 477.05078125 35.453125 662 26 c 0
 732.836914062 22.37890625 791 29.0341796875 791 116 c 0
 791 119.65234375 753.196289062 141.362304688 746 146 c 0
 710 152 l 1025
EndSplineSet
EndChar
StartChar: Y
Encoding: 89 89 52
Width: 778
Flags: W
LayerCount: 2
Fore
SplineSet
94.0166015625 779 m 1
 94.0166015625 773 l 0
 94.0166015625 706.891601562 149.96875 689 205.016601562 689 c 0
 325.819335938 807.673828125 299.389648438 763.075195312 301.016601562 617 c 0
 297.08984375 517.751953125 295.1953125 417.676757812 361.016601562 344 c 0
 387.6328125 314.206054688 396.50390625 296 439.016601562 296 c 0
 520.646484375 279.665039062 601.73828125 335.182617188 631.016601562 410 c 0
 670.8671875 476.028320312 669.033203125 560.153320312 682.016601562 638 c 0
 686.443359375 664.543945312 682.016601562 696.360351562 682.016601562 725 c 0
 682.016601562 749.171875 659.098632812 740 637.016601562 740 c 0
 589.026367188 752.750976562 571.83984375 697.467773438 577.016601562 662 c 0
 561.182617188 620.30078125 567.48046875 575.03515625 571.016601562 533 c 0
 572.216796875 518.723632812 574.868164062 490.51953125 583.016601562 479 c 0
 607.016601562 377 l 0
 622.016601562 284 l 0
 640.016601562 161 l 0
 646.016601562 80 l 0
 646.016601562 47 l 0
 626.122070312 7.5380859375 560.629882812 8.8828125 520.016601562 8 c 0
 438.338867188 6.2255859375 379.016601562 53.5576171875 379.016601562 137 c 0
 379.016601562 152.075195312 395.793945312 185 415.016601562 185 c 0
 433.858398438 185 451.016601562 141.28515625 451.016601562 125 c 0
 451.016601562 115.680664062 446.809570312 109.9765625 445.016601562 104 c 0
 433.016601562 98 l 1025
EndSplineSet
EndChar
StartChar: Z
Encoding: 90 90 53
Width: 340
Flags: W
LayerCount: 2
Fore
SplineSet
17 710 m 0
 14.0771484375 731.553710938 8.326171875 753.454101562 5 776 c 0
 5 774.9375 17.5322265625 776 20 776 c 0
 69.1298828125 776 117.546875 752 167 752 c 0
 216.09765625 740.046875 358.451171875 847.099609375 302 749 c 0
 292.8046875 724.763671875 285.2421875 703.252929688 278 680 c 0
 255.947265625 609.194335938 119 488.375976562 119 431 c 0
 196.693359375 394.340820312 234.606445312 301.109375 254 221 c 0
 253.884765625 129.387695312 291.512695312 -50.1650390625 146 -19 c 0
 86.3916015625 -36.4560546875 85.9755859375 34.517578125 86 77 c 0
 86.04296875 150.905273438 125.1171875 197.430664062 158 263 c 0
 293 404 l 0
 335 443 l 1025
EndSplineSet
EndChar
StartChar: bracketleft
Encoding: 91 91 58
Width: 300
Flags: W
LayerCount: 2
Fore
SplineSet
201 -202 m 1
 99 -202 l 1
 99 818 l 1
 201 818 l 1025
EndSplineSet
EndChar
StartChar: backslash
Encoding: 92 92 60
Width: 512
Flags: W
LayerCount: 2
Fore
SplineSet
371.5 107 m 25
 140.5 665 l 1053
EndSplineSet
EndChar
StartChar: bracketright
Encoding: 93 93 59
Width: 300
Flags: W
LayerCount: 2
Fore
SplineSet
99 -202 m 1
 201 -202 l 1
 201 818 l 1
 99 818 l 1025
EndSplineSet
EndChar
StartChar: asciicircum
Encoding: 94 94 62
Width: 349
Flags: W
LayerCount: 2
Fore
SplineSet
-183 239 m 1049
339 719 m 29
 174 824 l 29
 10 719 l 1049
EndSplineSet
EndChar
StartChar: underscore
Encoding: 95 95 61
Width: 512
Flags: W
LayerCount: 2
Fore
SplineSet
-15.5 -201 m 25
 527.5 -207 l 1053
EndSplineSet
EndChar
StartChar: grave
Encoding: 96 96 63
Width: 223
Flags: W
LayerCount: 2
Fore
SplineSet
50 549 m 25
 173 411 l 1053
EndSplineSet
EndChar
StartChar: a
Encoding: 97 97 64
Width: 510
Flags: W
LayerCount: 2
Fore
SplineSet
0 15 m 0
 155.357421875 48.96484375 389.340820312 145.470703125 357 348 c 1
 366.025390625 401.030273438 318.192382812 413.060546875 276 414 c 1
 120.030273438 496.168945312 6.0107421875 224.03515625 84 66 c 0
 93.45703125 46 103.868164062 16.3037109375 132 18 c 1
 238.6015625 -17.6572265625 397.154296875 48.5888671875 378 162 c 0
 376.87109375 168.684570312 376.037109375 219 369 219 c 0
 289.012695312 178.69140625 303.55859375 21 414 21 c 0
 428.021484375 21 444.163085938 -6 465 -6 c 2
 471 -6 l 1
 510 12 l 1025
EndSplineSet
EndChar
StartChar: b
Encoding: 98 98 65
Width: 522
Flags: W
LayerCount: 2
Fore
SplineSet
0 2 m 0
 157.227539062 120.104492188 244.905273438 324.662109375 234 524 c 0
 235.669921875 585.978515625 222.826171875 650.848632812 210 710 c 0
 201.869140625 747.499023438 197.912109375 821 147 821 c 0
 127.725585938 817.376953125 120.881835938 792.032226562 111 779 c 0
 96.1240234375 759.3828125 89.06640625 734.237304688 81 713 c 0
 72 614 l 0
 63 527 l 0
 69 341 l 0
 84 233 l 0
 89.2392578125 214.106445312 93.650390625 196.6484375 99 179 c 0
 129.90234375 135.872070312 139.994140625 47.810546875 198 41 c 0
 249.93359375 34.90234375 298.530273438 17 354 17 c 0
 425.41015625 18.2685546875 464.001953125 107.615234375 477 170 c 0
 480.577148438 187.166015625 480 207.504882812 480 227 c 0
 479.95703125 256.625 460.659179688 283.291015625 444 308 c 0
 409.373046875 359.358398438 377.04296875 371 318 371 c 0
 303.71484375 371 279 337.568359375 279 326 c 0
 289.643554688 298.537109375 300.4765625 266.81640625 333 266 c 0
 355.763671875 259.43359375 382.326171875 256.232421875 408 266 c 0
 415.166015625 268.7265625 435.204101562 275 444 275 c 0
 465 275 l 0
 470.358398438 275 484.663085938 289.60546875 489 293 c 0
 519 368 l 0
 522 404 l 1025
EndSplineSet
EndChar
StartChar: c
Encoding: 99 99 66
Width: 495
Flags: W
LayerCount: 2
Fore
SplineSet
0 91.599609375 m 0
 124.041992188 204.284179688 351 171.867561238 351 362 c 0
 351 371.240234375 336.6796875 416 324 416 c 0
 295.625976562 416 294 391.618164062 294 374 c 0
 294 355.595703125 295.907226562 332 318 332 c 1
 344.15625 337.39453125 400.018554688 343.400390625 390 383 c 0
 372.403320312 452.556640625 348.700195312 437 258 437 c 1
 119.446970079 407.212870516 156.324988263 277.379670756 156 146 c 1
 180 65 l 1
 180 65 207 31 231 20 c 24
 256 9 300 11 300 11 c 2
 313.72265625 10.1240234375 330.036132812 8 348 8 c 0
 495 95 l 1024
EndSplineSet
EndChar
StartChar: d
Encoding: 100 100 67
Width: 618
Flags: W
LayerCount: 2
Fore
SplineSet
0 91.599609375 m 0
 134.345703125 148.1875 389.040612801 80.3337538395 354 290 c 0
 342.384765625 359.5 331.0859375 401 240 401 c 0
 120.09375 401 117 295.967773438 117 191 c 1
 134.837890625 119.840820312 182.8203125 -15.69140625 264 -4 c 0
 409.48828125 16.953125 468 146.05859375 468 299 c 0
 464.479492188 439.494140625 427.158203125 571.403320312 405 701 c 0
 401.844726562 719.453125 390.19921875 761.065429688 369 770 c 1
 354 629 l 1
 360 416 l 1
 372 329 l 1
 383.802734375 254.282226562 443.43359375 5 522 5 c 0
 543.62109375 5 560.19921875 14.45703125 582 20 c 1
 618 91.599609375 l 1029
EndSplineSet
EndChar
StartChar: e
Encoding: 101 101 68
Width: 540
Flags: W
LayerCount: 2
Fore
SplineSet
0 92 m 0
 163.7421875 108.31640625 396.9453125 181.842773438 414 374 c 0
 414 406.133789062 321.200195312 413 297 413 c 0
 239.6640625 413 141 311.610351562 141 257 c 0
 137.525390625 215.295898438 130.834960938 175.529296875 135 134 c 0
 116.506835938 30.8193359375 214.432617188 -16.1103515625 300 -4 c 0
 410.961914062 11.7041015625 432.426757812 39.3291015625 525 101 c 0
 540 122 l 1025
EndSplineSet
EndChar
StartChar: f
Encoding: 102 102 69
Width: 397
Flags: W
LayerCount: 2
Fore
SplineSet
-3 84 m 0
 165.368242927 185.527601039 214.805103255 379.374076065 199 564 c 0
 196.188424415 596.843172972 217.990260075 708 167 708 c 0
 148.776480094 686.090329735 145.587735078 653.852684625 143 626 c 0
 138.786264805 609.243953697 141.094215115 590.011682074 141 572 c 0
 122.740743581 474.543450787 132.814189332 371.858307585 131 272 c 0
 127.376815797 192.427502104 130.638124997 110.506942093 153 38 c 0
 158.181190589 21.2003226033 165.475180281 -24 189 -24 c 0
 211.396558643 -23.2294373407 222.50661232 -0.602294490654 231 18 c 0
 248.980195673 44.7831281299 242.995046228 81.5942761057 245 114 c 0
 245.025214475 138.681961331 239.86697339 161.391413536 229 184 c 0
 215.106285073 208.111489812 192.480660046 247.017304105 159 242 c 0
 152.817586172 241.073523335 141.080696841 248 135 248 c 0
 127.540171827 248 129 244.155859491 129 238 c 0
 129 187.467202853 180.259411932 175.883025993 207 144 c 0
 255 126 l 0
 327 108 l 0
 389 98 l 1025
EndSplineSet
EndChar
StartChar: g
Encoding: 103 103 70
Width: 417
Flags: WO
LayerCount: 2
Fore
SplineSet
-1 92 m 0
 16.9756282047 103.244431762 28.1513839645 122.6183553 45 138 c 0
 55.6793748912 147.749545592 66.8402324622 160.448516487 75 172 c 0
 83 196 l 1025
331 140 m 0
 307.692091471 91.9913275217 237.715238408 111.620786379 195 106 c 0
 94.7841473546 92.8128583501 77 99.7179281801 77 206 c 0
 74.5882150614 310.887634415 167.427739409 475.256849391 285 390 c 0
 296.355149088 381.765878867 319 322 319 322 c 0
 325 192 l 0
 323 2 l 0
 313 -55 l 4
 303 -115 l 4
 285 -167 l 4
 274.333007812 -184.247070312 258.44921875 -197.826171875 237 -193 c 4
 205.26953125 -196.323242188 169.241210938 -184.09375 161 -153 c 4
 149.060546875 -133.576171875 140.328125 -112.37890625 143 -87 c 4
 143.00390625 38.0419921875 346.156746172 -50.9940183 387 54 c 0
 388.432232159 57.6817783941 407 78 407 78 c 0
 415 92 l 1025
EndSplineSet
EndChar
StartChar: h
Encoding: 104 104 71
Width: 597
Flags: W
LayerCount: 2
Fore
SplineSet
0 91.599609375 m 0
 134.192382812 139.130859375 209.36328125 278.046875 243 413 c 0
 240 584 l 0
 228 659 l 0
 213 758 l 0
 201.661132812 777.08203125 202.854492188 827 171 827 c 0
 170.997070312 827 168 821.000976562 168 821 c 0
 162 758 l 0
 168 641 l 0
 186 491 l 0
 201 341 l 0
 219 203 l 0
 219 182 l 0
 228 104 l 0
 234 -4 l 0
 243 98 l 0
 261 191 l 0
 255.744140625 211.298828125 269.72265625 225.579101562 273 242 c 0
 291.352539062 276.510742188 294.572265625 314.655273438 318 344 c 0
 336.779296875 367.522460938 371.725585938 413 402 413 c 0
 477.44921875 383.7578125 464.908203125 287.124023438 468 218 c 0
 470.258789062 167.502929688 447.581054688 2 519 2 c 0
 527.456054688 2 531.310546875 5.3935546875 540 8 c 0
 585 68 l 0
 597 91.599609375 l 1025
EndSplineSet
EndChar
StartChar: i
Encoding: 105 105 72
Width: 289
Flags: W
LayerCount: 2
Fore
SplineSet
151 548 m 0
 147.791905596 543.495687116 146.173001236 537.295791139 145 532 c 0
 145 532 153.320292805 530 155 530 c 0
 157.673007244 530 158.574412355 540.297677795 159 542 c 0
 153 548 l 1025
3 96 m 1
 7 96 l 0
 128.870170705 104.574237374 145.349327724 266.588818637 153 364 c 0
 154.020815814 376.997403466 156.63455509 416 139 416 c 0
 114.10763237 416 125.802766132 405.393689257 115 396 c 0
 107 342 l 0
 103 248 l 0
 107 172 l 0
 121 104 l 0
 125.466656583 75.9433833743 144.390248365 53.799155396 167 34 c 0
 183.120547238 19.8833823126 214.442846812 2 235 2 c 0
 243.080179395 2 252.201406223 16.0881921773 259 22 c 0
 277 62 l 0
 289 92 l 1025
EndSplineSet
EndChar
StartChar: j
Encoding: 106 106 73
Width: 227
Flags: W
LayerCount: 2
Fore
SplineSet
147 520 m 0
 138.215246031 515.700614391 142.403671619 506.389860967 139 500 c 0
 139 496.921702769 148.248678606 494 151 494 c 0
 153.22299786 494 157 496.824310534 157 500 c 0
 157 504 l 0
 149 516 l 1025
1 98 m 0
 113.217123627 132.442473497 154.412266982 246.111744056 149 354 c 0
 148.152318963 370.897693513 151 387.136708838 151 404 c 0
 151 407.023569312 141.200709343 414 139 414 c 0
 114.513028982 394.196924769 128.305704232 362.170827543 125 334 c 0
 114.824651502 218.774045478 152.955668386 111.000466849 167 -2 c 0
 173.23088332 -52.1335872283 179 -103.24381142 179 -154 c 0
 179 -163.949093794 172.39298571 -216 157 -216 c 0
 128.258323734 -211.806490388 102.097638759 -192.634079053 113 -162 c 0
 111.179868273 -136.670631459 117.185696689 -110.738318768 125 -88 c 0
 136.805472131 -33.7484068643 181.016838535 2.1243119533 207 48 c 0
 210.797545238 54.7049192963 225 77.8918045301 225 86 c 0
 225 100 l 0
 227 92 l 1025
EndSplineSet
EndChar
StartChar: k
Encoding: 107 107 74
Width: 423
Flags: W
LayerCount: 2
Fore
SplineSet
1 88 m 1
 -1 94 l 1
 88.9606104894 271.81626551 130.802745602 469.228222277 119 670 c 0
 118.750030101 674.252137817 124.056006035 786 111 786 c 1
 45.8309685035 690.087344669 129 493.305729414 129 374 c 0
 129 332.643019626 132.013481931 292.783350521 135 252 c 4
 163.464016826 -136.69946494 117.138876178 -30.2450574718 151 264 c 4
 157.420439352 319.792080498 231.870197755 402 289 402 c 1
 348.186823319 385.802550184 363.269928358 325.070982027 359 270 c 1
 369.028676587 199.298144209 309.803836393 138.260997015 239 154 c 1
 205.186027746 150.837685425 137 159.078815672 137 196 c 1
 137 196 148.370483149 196 151 196 c 0
 160.056909271 198.187501825 208.547663232 80.9337821987 221 64 c 1
 238.680880074 17.8918441869 284.657099033 2 341 2 c 0
 379.779817965 2 390.157329848 41.8830467073 409 68 c 1
 423 96 l 1025
EndSplineSet
EndChar
StartChar: l
Encoding: 108 108 75
Width: 296
Flags: W
LayerCount: 2
Fore
SplineSet
4 93 m 1
 4 99 l 1
 178.716559527 214.434444469 216.066738554 439.771785975 205 636 c 0
 203.700438036 659.042987961 219.041481217 825 172 825 c 1
 150.312147393 793.871732093 146.875054264 749.262011872 142 711 c 0
 122.303640948 577.70973723 111.831725939 436.978723793 127 300 c 0
 129.671995504 275.870258363 161.095417866 -9.2541663826 214 -9 c 0
 255.184730098 -8.8021386155 283.880859375 66.49609375 296 91.599609375 c 1029
EndSplineSet
EndChar
StartChar: m
Encoding: 109 109 76
Width: 643
Flags: W
LayerCount: 2
Fore
SplineSet
3 86 m 1
 3 90 l 0
 6.47584311833 106.69668834 8.0349714834 123.681221306 15 140 c 0
 33.7870367088 211.100640402 65.9439248513 279.749925983 107 342 c 0
 116.857773043 356.946560268 136.388267362 404 157 404 c 0
 167 404 l 0
 170.936401766 404 173.072411905 406 177 406 c 0
 193.354666939 397.990038258 200.916858504 376.906331213 209 362 c 0
 218.662266342 347.402877438 219.413375256 327.461484868 225 310 c 0
 237.710332293 267.053968416 240.174853201 220.008795761 239 174 c 0
 238.305176934 146.789815349 249.445645758 -6 201 -6 c 0
 193.609616112 13.4253381023 191.717437414 38.8008850951 191 62 c 0
 187.124061943 108.776015586 211.840522731 147.387016319 215 192 c 0
 223.928510653 222.690170098 225.726479971 254.287443712 241 280 c 0
 252.206454669 301.29027815 263.094523632 320.332437363 279 340 c 0
 296.867113521 362.093181379 317.048731284 406 347 406 c 0
 372.478975227 398.02673422 392.29363153 366.737217945 393 338 c 0
 393.289511207 326.221803467 399 314.785035117 399 302 c 0
 413.094953226 259.530662871 397.910610913 211.535270151 409 170 c 0
 412.830305225 155.653604448 420.085694723 -8 399 -8 c 0
 388.364812127 -4.07151050668 387.328720563 7.83067161144 381 16 c 0
 375.139311989 23.5651760047 370.107000088 37.1584018913 367 46 c 0
 369 176 l 0
 381 234 l 0
 399 308 l 0
 413 352 l 0
 441.443788643 373.996515218 442.30645793 410 489 410 c 0
 511.106113443 410 519.895893272 364.006300085 529 350 c 0
 535 276 l 0
 541 164 l 0
 545 86 l 0
 547 22 l 0
 549.019240701 4.56196193151 561.222849664 -0.252950945234 577 0 c 0
 591.23383915 0.228207438635 595.782938805 2.31326169941 607 10 c 0
 629 56 l 0
 643 96 l 1025
EndSplineSet
EndChar
StartChar: n
Encoding: 110 110 77
Width: 481
Flags: W
LayerCount: 2
Fore
SplineSet
3 92 m 0
 44.2598809022 198.688890959 68.3379524104 294.489436081 137 378 c 0
 145.440921014 388.266313031 157.501278437 408 173 408 c 0
 196.21883268 408 208.033283053 355.762851868 217 342 c 1
 223 280 l 1
 219 126 l 1
 209 42 l 2
 209 33.8535630751 200.623411979 -4 187 -4 c 1
 176.714470322 14.2683625148 176.28581086 38.0553909366 177 60 c 0
 173.568390067 110.882134403 185.532566387 156.578356843 201 194 c 1
 209 240 l 1
 222.166417869 272.916044673 235.492364636 305.581675126 249 338 c 1
 274.236292438 371.805482612 292.13725376 414 349 414 c 0
 366.756039512 414 380.985643557 386.793082738 391 378 c 1
 399 322 l 1
 391 262 l 1
 383 208 l 1
 379 144 l 1
 375 14 l 1
 386.705905358 7.0631800426 386.315811572 -2 403 -2 c 0
 445.236964711 -2 447.466921768 37.8374338613 463 62 c 2
 481 90 l 1025
EndSplineSet
EndChar
StartChar: o
Encoding: 111 111 78
Width: 314
Flags: W
LayerCount: 2
Fore
SplineSet
-1 94 m 1
 7 94 l 0
 70.7016889757 108.033869406 114.06553558 161.9770385 159 206 c 0
 194.315922217 248.54567669 229.990199963 297.677215785 231 356 c 0
 247.662696998 407.529037436 186.901025025 431.570198262 149 412 c 0
 88.3888279255 400.020801731 57.1991791118 326.606169604 47 270 c 0
 44.5809561963 256.574134807 43 243.675561237 43 230 c 0
 43.4594061975 190.77482983 62.4439707446 155.051151562 63 116 c 0
 66.4322562312 60.9214395356 99.2694262789 11.4302048834 155 0 c 0
 167.081455257 -2.47787703699 170.763928903 -4 183 -4 c 0
 220.01511999 3.18146192626 240.995999355 38.7366271768 255 70 c 0
 266.007308855 108.254671829 272.381959482 149.204411353 271 190 c 0
 274.933362715 228.340688168 261.624306938 264.545670248 253 300 c 0
 247.158555454 324.014045723 231.413362742 353.705005928 217 374 c 0
 188 402 l 1
 230.24609375 393.419921875 265.307617188 354.817382812 276 312 c 1
 277.43359375 284.396484375 294.026367188 266.466796875 297 237 c 0
 298.294921875 224.171875 303.469726562 200.354492188 309 189 c 0
 314 91.599609375 l 1029
EndSplineSet
EndChar
StartChar: p
Encoding: 112 112 79
Width: 323
Flags: W
LayerCount: 2
Fore
SplineSet
4 90 m 1
 52 144 l 1
 95.6848894289 187.048666715 120.74356266 247.633888002 112 310 c 1
 123.014186709 403.267140433 72.0556358323 452.019929788 94 344 c 0
 95.7398704317 335.435583167 106 260 106 260 c 1
 114 194 l 1
 120 118 l 1
 130 -128 l 1
 138 -218 l 1
 200.04472608 -188.144472375 140 -34.3279561856 140 28 c 0
 140 49.9425602577 122 65.183874161 122 84 c 0
 122 84.9970418094 118 90 118 90 c 1
 114 164 l 1
 118 298 l 1
 146 354 l 1
 195.905004002 419.541748244 283.381605287 357.519722901 280 278 c 0
 278.652686572 246.317416929 284 214.139667361 284 180 c 1
 268.88643708 127.832512484 238.204765615 87.0411594021 176 92 c 0
 156.717537024 93.5371597222 131.868652871 108 120 108 c 1
 124.716863061 115.326157564 222.79744139 89.8552453527 234 86 c 0
 262.847450434 76.0724465637 310.893554688 80.00390625 323 91.599609375 c 1029
EndSplineSet
EndChar
StartChar: q
Encoding: 113 113 80
Width: 339
Flags: W
LayerCount: 2
Fore
SplineSet
-5 86 m 0
 -2.87493896484 86 -0.874938964844 86 1 86 c 0
 7 86 l 0
 17 136 l 0
 21 160 l 1025
173 395 m 0
 165.834960938 395 126.398720183 394 119 394 c 0
 32.4898529808 394 17 266.593776555 17 194 c 0
 17 136.976140483 62.8251658661 88 121 88 c 0
 214.278547125 88 217 183.397583186 217 256 c 0
 217 316.04574534 193.292599291 353.921417172 183 396 c 0
 179 288 l 0
 183 56 l 0
 195 -46 l 0
 202.764328975 -83.5622702769 207.199755052 -121.592738433 211 -160 c 0
 214.297433877 -230.123872357 223.556836391 -209.329191745 243 -154 c 0
 254.606011327 -120.972904256 283.806244275 -73.4182700772 307 -46 c 0
 339 -2 l 1025
EndSplineSet
EndChar
StartChar: r
Encoding: 114 114 81
Width: 417
Flags: W
LayerCount: 2
Fore
SplineSet
-3 94 m 0
 16.2134729552 65.398455509 26.2868674189 10 72 10 c 0
 239.539818437 2.40190598515 157.560624156 289.998663954 108 361 c 0
 96.7195614795 377.160535098 77.2601903342 427 57 427 c 0
 24.4991198682 427 12 371.399100296 12 346 c 0
 -3.42916472764 241.332673536 300 294.307541878 300 394 c 0
 300 411.913372054 296.692009688 409 279 409 c 0
 270.556042268 409 270.551394107 404.211595455 264 400 c 1
 252 331 l 1
 258 169 l 1
 270 82 l 1
 318 7 l 1
 393 13 l 1
 411 76 l 1
 417 88 l 1025
EndSplineSet
EndChar
StartChar: s
Encoding: 115 115 82
Width: 348
Flags: W
LayerCount: 2
Fore
SplineSet
0 97 m 1
 4 97 l 2
 78.5370718532 97 202.03702472 227.850850616 264 269 c 1
 280 313 l 1
 278 371 l 1
 242 401 l 1
 224.338045712 409.242961233 199.228197687 407 176 407 c 1
 130.616444127 389.094533198 120 344.313752144 120 297 c 0
 120 182.085301636 304 179.19114262 304 63 c 0
 304 36.4999856489 281.892340411 -1 256 -1 c 0
 221.764719815 -1 164 10.5381085122 164 53 c 0
 164 62.9730163907 169.435588077 61 178 61 c 0
 190.345476909 61 190.431916256 43 212 43 c 0
 246.043765443 43 278.078517653 80.023555296 308 89 c 2
 348 101 l 1025
EndSplineSet
EndChar
StartChar: t
Encoding: 116 116 83
Width: 354
Flags: W
LayerCount: 2
Fore
SplineSet
22 592 m 1
 26 592 l 2
 45.8732322243 592 63.4486799618 580 84 580 c 0
 128.637131795 580 173.218583403 600 214 600 c 2
 218 600 l 1
 304 550 l 1025
-2 92 m 0
 93.5080031658 171.437104803 157.596359837 322.342655466 162 476 c 0
 162.808594821 504.214506267 184.392895223 784 140 784 c 0
 133.054590441 784 130.31558183 777.052448621 124 772 c 1
 114 696 l 1
 108 626 l 1
 112 524 l 1
 120 446 l 1
 125.167836492 412.409062803 130.491281142 379.05231315 136 346 c 1
 144 258 l 1
 150 210 l 1
 153.282373175 170.611521897 156.591288448 131.200182842 160 92 c 1
 166 52 l 1
 187.535954677 8.80468021663 205.187997815 12 268 12 c 0
 300.835067706 12 312.527216246 41.4645883334 334 56 c 1
 354 96 l 1025
EndSplineSet
EndChar
StartChar: u
Encoding: 117 117 84
Width: 442
Flags: W
LayerCount: 2
Fore
SplineSet
0 94 m 0
 70.4158824188 157.985979742 96.3022764646 257.69850854 106 350 c 0
 107.051177402 360.0049503 111.350461189 426 94 426 c 1
 76.6836670059 347.529014307 64.2350019072 238.66938954 86 146 c 1
 82.5712951733 81.1759716296 117.292807607 -5.45524660674 184 0 c 1
 318.094902348 -26.5783067805 286 226.5289961 286 334 c 2
 286 356 l 2
 286 362.904050017 280 368.843022188 280 376 c 2
 280 388 l 2
 280 391.409876411 269.919533999 424 268 424 c 0
 262.273874078 424 255.093225307 406.536715326 252 402 c 2
 254 326 l 1
 264 280 l 1
 273.169994228 244.466272366 283.507581096 209.236573665 292 174 c 0
 303.948783996 124.422345829 307.481866995 3.2454039683 368 6 c 1
 415.645050207 -5.66236237807 432.217204461 57.9963505527 442 96 c 1024
EndSplineSet
EndChar
StartChar: v
Encoding: 118 118 85
Width: 444
Flags: W
LayerCount: 2
Fore
SplineSet
-1 93 m 1
 -1 95 l 0
 7.34086498788 107.164945384 3.97225975025 123.509919493 9 137 c 0
 12.8330077028 173.129681516 19.7310977652 207.890615118 25 244 c 0
 29.627075483 266.128249387 30.680306066 289.800947602 36 312 c 0
 36.8094722802 326.557285965 38.8155544268 342.31567465 44 356 c 0
 46.663699885 370.919178975 46.4652226583 387.775083689 60 398 c 0
 63.0807941497 400.327401593 66.5427413511 408 71 408 c 0
 74.3507611406 397.511900539 85.1106332918 391.130387218 92 382 c 0
 98.9008125359 371.216301162 107.268927555 360.79767285 113 349 c 0
 119.099819393 339.978310552 123.466434825 328.785398408 124 317 c 0
 130.142134881 299.801319042 128.708097785 279.262673727 137 263 c 0
 144.45995865 227.6440254 162.334843546 194.001364006 173 159 c 0
 174.588191781 153.787804671 182 127 182 127 c 0
 185 87 l 0
 188 22 l 0
 198 2 l 0
 201.845511218 1.67954206717 205.896902071 1 211 1 c 0
 237.523489106 7.34115257051 251.310926191 42.3337592781 266 63 c 0
 280.14160142 92.3075417538 294.695052148 118.048982417 310 147 c 0
 316.886584523 160.026743477 325.629016026 177.360277367 329 192 c 0
 335 235 l 0
 339 289 l 0
 337 363 l 0
 330 384 l 0
 307.548519406 393.41512943 294.07436427 410 267 410 c 0
 241.762505427 406.596911777 249.932298296 374.53307358 252 357 c 0
 253.966083586 335.975653979 263.463090374 316.276535401 275 298 c 0
 291.41073952 270.57296458 313.349288523 247.347200972 337 225 c 0
 344.661813129 217.760468201 359.914617657 204.552115151 364 194 c 0
 404 143 l 0
 440 101 l 0
 443 93 l 1025
EndSplineSet
EndChar
StartChar: w
Encoding: 119 119 86
Width: 627
Flags: W
LayerCount: 2
Fore
SplineSet
-2 97 m 0
 79.1291250794 156.023851509 130.539946892 257.166742549 126 361 c 0
 121.248944776 482.36188415 79.2994031034 281.660419535 94 229 c 0
 112.486866801 162.776419523 88.2957870819 5 202 5 c 0
 283.067470652 5 302 79.9568946137 302 149 c 0
 302 174.831099677 296.737556395 189 266 189 c 0
 238.286236788 189 238 146.235114422 238 129 c 0
 238 63.0230000667 327.640371124 -11 394 -11 c 0
 492.431738771 -11 510 121.790224408 510 189 c 0
 510 225.18951739 470.056943098 401 410 401 c 0
 375.096148052 401 378 345.167741523 378 325 c 0
 369.687087563 222.64677637 518.863188772 162.182805256 590 121 c 1
 627 91.599609375 l 1029
EndSplineSet
EndChar
StartChar: x
Encoding: 120 120 87
Width: 447
Flags: W
LayerCount: 2
Fore
SplineSet
0 91.599609375 m 3
 -18.400390625 91.599609375 74.7278807918 300 52 300 c 0
 48.3916015625 300 44 329.409179688 44 336 c 3
 44 464.768554688 232 401.66015625 232 284 c 3
 232 235.833984375 156 137.081054688 156 88 c 3
 156 -5.38671875 96 56 96 56 c 1
 96 210.940429688 424 216.35546875 424 388 c 3
 424 411.155273438 403.533203125 400 392 400 c 3
 250.974609375 400 217.620117188 36 324 36 c 3
 347.123046875 36 363 32 388 32 c 27
 406 32 428 38 428 56 c 3
 428 70 447 78 447 91.599609375 c 1048
EndSplineSet
EndChar
StartChar: y
Encoding: 121 121 88
Width: 356
Flags: W
LayerCount: 2
Fore
SplineSet
-2 90 m 0
 -3.62962962963 90.5925925926 -5.30428490993 93.6898092977 -4 96 c 0
 55.8567397254 165.994992107 109.995440602 249.106386423 120 344 c 0
 120.717641052 350.806851752 114.543914906 428.49727835 90 412 c 0
 94 334 l 0
 102 280 l 0
 116 196 l 0
 119.849650792 172.372875212 133.439219407 140.207304532 160 142 c 0
 264.868124369 142.220342735 304.416925528 256.729583514 288 348 c 0
 286.585785541 355.862369996 285.228773871 414 274 414 c 0
 259.629016626 385.77392673 261.586835015 354.242458439 262 324 c 0
 262.254448189 305.375142988 266 284.264972523 266 268 c 0
 264.257824812 245.507699049 270.154518931 224.80255617 274 204 c 0
 277.004345592 187.747659447 280 175.619939459 280 160 c 0
 287.777222565 128.664529438 289.979857703 97.1347725169 292 66 c 0
 297.601825757 -20.3362798129 286 -109.550234239 286 -192 c 0
 286.920877393 -200.3689798 287.861389419 -211.888448472 276 -208 c 0
 239.822000323 -212.505997545 180.268228287 -217.861514074 190 -166 c 0
 185.114559978 -122.045644085 229.851678081 -97.4091345691 250 -64 c 0
 271.273003778 -28.7259633437 297.624812833 4.69582526809 322 36 c 0
 346 82 l 0
 356 96 l 1025
EndSplineSet
EndChar
StartChar: z
Encoding: 122 122 89
Width: 378
Flags: W
LayerCount: 2
Fore
SplineSet
0 94 m 0
 105.979492188 129.32421875 152.1328125 254.168945312 146 362 c 0
 151.186523438 394.006835938 147.883789062 439.611328125 104 426 c 0
 22.6611328125 400.771484375 83.96875 390 164 390 c 0
 210.6171875 388.431640625 248.583007812 415.029296875 294 418 c 0
 315.375976562 419.3984375 334.616210938 424 356 424 c 0
 356.329101562 409.0703125 336.999023438 388.463867188 332 370 c 0
 316.83203125 326.434570312 291.758789062 290.782226562 262 256 c 0
 232.78125 215.178710938 197.362304688 179.352539062 172 138 c 0
 163.209960938 112.283203125 121.725585938 70.7421875 172 80 c 0
 242.340820312 96.80859375 315.233398438 57.4599609375 314 -18 c 0
 310.981445312 -66.080078125 326.166992188 -121.439453125 292 -158 c 0
 274.366210938 -176.869140625 269.901367188 -212 234 -212 c 0
 210.423828125 -212 185.440429688 -216 162 -216 c 0
 130.06640625 -217.078125 132.102539062 -176.583984375 132 -152 c 0
 129.00390625 -119.364257812 141.926757812 -91.8984375 166 -70 c 0
 182.239257812 -56.2392578125 195.291992188 -42.5634765625 214 -32 c 0
 231.592773438 -26.083984375 243.690429688 -12.6201171875 260 -6 c 0
 300.600585938 10.48046875 332.33984375 40.21484375 366 64 c 0
 378 94 l 1025
EndSplineSet
EndChar
StartChar: braceleft
Encoding: 123 123 90
Width: 306
Flags: W
LayerCount: 2
Fore
SplineSet
204 785 m 0
 90.521484375 766.841796875 153 613.4453125 153 506 c 0
 153 465.173828125 90 429.826171875 90 407 c 1
 179.137695312 417.545898438 119.604492188 183.627929688 171 50 c 0
 181 24 216 28 216 28 c 1029
EndSplineSet
EndChar
StartChar: bar
Encoding: 124 124 92
Width: 226
Flags: W
LayerCount: 2
Fore
SplineSet
113 0 m 1
 113 781 l 1025
EndSplineSet
EndChar
StartChar: braceright
Encoding: 125 125 91
Width: 306
Flags: W
LayerCount: 2
Fore
SplineSet
102 785 m 0
 215.478515625 766.841796875 153 613.4453125 153 506 c 0
 153 465.173828125 216 429.826171875 216 407 c 1
 126.862304688 417.545898438 186.395507812 183.627929688 135 50 c 0
 125 24 90 28 90 28 c 1029
EndSplineSet
EndChar
StartChar: asciitilde
Encoding: 126 126 93
Width: 505
Flags: W
LayerCount: 2
Fore
SplineSet
40 458.799804688 m 5
 40 455.599609375 l 6
 40 435.732421875 72.611328125 406 92.7998046875 406 c 5
 204.71875 364.96875 272.0625 470 372.799804688 470 c 4
 379.3125 470 384.946289062 468.919921875 390.399414062 468.400390625 c 6
 454.399414062 431.599609375 l 5
 465.599609375 422 l 1029
EndSplineSet
EndChar
StartChar: uni0964
Encoding: 2404 2404 96
Width: 199
Flags: W
LayerCount: 2
Fore
SplineSet
97 411 m 29
 100 91.5999984741 l 1053
EndSplineSet
EndChar
StartChar: uni0965
Encoding: 2405 2405 97
Width: 403
Flags: W
LayerCount: 2
Fore
SplineSet
300 411 m 25
 303 91.599609375 l 1049
100 411 m 25
 103 91.599609375 l 1049
EndSplineSet
EndChar
StartChar: uni0981
Encoding: 2433 2433 98
Width: 0
Flags: W
LayerCount: 2
Fore
SplineSet
-248 974 m 0
 -250.356205645 971.757440346 -222.383744278 961.576945245 -212 959 c 0
 -204.662228503 959 -203 966.312070227 -203 974 c 0
 -203 990.954840389 -212.611739361 1004 -230 1004 c 0
 -241.591884172 1004 -231.875477676 1003.76122081 -242 1001 c 0
 -254 977 l 1025
-452 932 m 0
 -424.257515572 903.438827323 -381.462101723 883.761775953 -341 872 c 0
 -316.510054012 864.88110984 -296.359067697 854 -269 854 c 0
 -177.245743259 856.270968459 -74.7474601117 860.712418941 -20 947 c 1024
EndSplineSet
EndChar
StartChar: uni0982
Encoding: 2434 2434 99
Width: 334
Flags: W
LayerCount: 2
Fore
SplineSet
145 458 m 0
 168.097620225 427.376548666 187.198229744 390.413818185 199 353 c 0
 193 143 l 0
 187 119 l 1025
148 566 m 0
 153.003490762 546.406073185 162.575007606 522.496186911 190 524 c 0
 203.427023814 524 223 545.985255128 223 560 c 0
 223 608.887417698 174.473659694 583.50495458 154 593 c 1024
EndSplineSet
EndChar
StartChar: uni0983
Encoding: 2435 2435 100
Width: 1024
LayerCount: 2
Fore
SplineSet
325.034736745 222.501336029 m 1
 328.996680912 222.998384045 331 223.498025456 331 224 c 0
 331 242 346 257 364 257 c 0
 382 257 397 242 397 224 c 0
 397 206 382 191 364 191 c 0
 343.317162947 191 325.985333387 205.175041428 325.034736745 222.501336029 c 1025
339 572 m 5
 341.398148616 593.825495996 357.907029553 611 379 611 c 0
 396 611 409 592 409 569 c 0
 409 546 396 527 379 527 c 0
 362 527 349 546 349 569 c 0
 349 570.756204552 349.075794532 572.48908771 349.22337692 574.191971678 c 1025
EndSplineSet
EndChar
StartChar: uni0985
Encoding: 2437 2437 101
Width: 1024
LayerCount: 2
Fore
SplineSet
288 785 m 1
 818 785 l 1025
579 328 m 0
 637.389484204 305.268991325 716.858135533 213.600299922 723 136 c 0
 723 107.390770438 679 85.5130217466 679 68 c 0
 689.852087286 94.3093534155 677.209652956 130.517824991 667 152 c 0
 658.699560575 169.46499055 659 190.326789016 659 208 c 0
 659.159624478 227.688916914 656.542273059 246.818520623 663 264 c 0
 688.135684183 335.32974637 691.010280856 406.304138278 707 480 c 0
 721.066422623 535.900195639 741.059507087 592.870940711 771 640 c 0
 806.646217293 696.110388467 844.198018415 725.972591948 891 768 c 0
 967 772 l 1025
7 772 m 1
 27 772 l 0
 132.96615177 772 347 776.023800804 347 616 c 0
 347 591.302925872 330.832536988 568 307 568 c 0
 271.989090659 568 267 597.982645311 267 628 c 0
 263.013708991 698.397104866 337.683284114 744.830530351 403 720 c 0
 522.757285404 722.118076995 592.613214351 571.929690323 587 464 c 0
 580.982651484 421.788194564 584.29223322 375.039945156 563 336 c 0
 548.21296237 262.657254322 502.500761319 190.639339135 431 164 c 0
 377.051982319 143.90036033 320.21868213 108 259 108 c 0
 112.98545542 75.6744630019 62.7907458326 195.78379966 51 312 c 0
 49.5213216915 326.574682296 27 392 27 392 c 0
 7 428 l 1025
EndSplineSet
EndChar
StartChar: uni0986
Encoding: 2438 2438 102
Width: 1024
LayerCount: 2
Fore
SplineSet
162 783 m 0
 297.085394236 772.299293339 443.788194094 782.248984467 582 779 c 0
 691.175010554 779 799.884499679 757 906 757 c 0
 944 757 l 0
 976 763 l 1025
607 292 m 0
 611.904188368 293.111111111 617.580837674 292.222222222 623 292 c 0
 676.586632373 292 691 186.165449799 691 144 c 0
 691 137.394085614 658.376982999 100 655 100 c 0
 637.91207223 149.066515517 646.467401726 201.952004078 651 252 c 0
 654.768043339 293.605941286 664.351869846 333.737265679 675 372 c 0
 695 476 l 0
 739 628 l 0
 783 712 l 0
 805.452204537 733.310548956 813.658045678 768 843 768 c 0
 861.428863298 768 879 692.208165948 879 672 c 0
 879 640 l 0
 911.278988629 509.505750687 970.084745588 381.558932808 959 240 c 0
 956.862580276 212.703852091 974.180625656 92 935 92 c 0
 894.374889556 92 908.092665001 108.255598182 883 124 c 0
 879 220 l 0
 895 308 l 0
 915 388 l 0
 923.514843112 422.449254509 934.658768255 454.702659931 939 488 c 0
 941.905139693 510.282483403 951 537.331100179 951 556 c 0
 950.320634767 584.38569985 955.142848225 610.477062857 971 632 c 0
 965.856937677 671.430660714 1003.63377007 696.484725152 1003 732 c 0
 1002.25155292 773.941556912 1027.99728591 788.005393862 1043 800 c 1024
-1 772 m 1
 191 704 l 0
 264.880572258 646.787583103 355 675.944976357 355 576 c 0
 355 551.825739362 327.97917816 528 307 528 c 0
 274.902724557 528 275 579.207340108 275 600 c 0
 275 690.45359401 332.854024893 720 415 720 c 0
 531.663774438 720 607 469.784157244 607 376 c 0
 607 300.420105528 532.839076598 92 435 92 c 0
 405.309294342 92 376.023423663 96 347 96 c 0
 12.836879384 96 119.333841005 417.630290192 19 560 c 1024
EndSplineSet
EndChar
StartChar: uni0987
Encoding: 2439 2439 103
Width: 422
Flags: W
LayerCount: 2
Fore
SplineSet
87 1164 m 4
 90.6455078125 1134.70898438 84.3110324935 1107.38378369 79 1076 c 4
 65.1953125 994.42578125 143.457263565 939.531160896 219 956 c 4
 246.10546875 961.909179688 291 971.359375 291 940 c 4
 291 883.133789062 227 857.194335938 227 816 c 4
 227 804.48046875 267.800783596 759.355024943 279 760 c 4
 298.110351562 761.100585938 317.286448487 773.546681641 335 776 c 4
 364.341045673 780.063720703 468.188713366 778.468547772 423 786 c 1028
-1 780 m 0
 4.0302734375 780.784179688 9.45866489618 781.296588337 15 780 c 0
 71.5107421875 766.77734375 169.312284183 791.012625467 191 724 c 0
 202.657226562 687.98046875 227.348632812 616 159 616 c 0
 148.080078125 616 117.97386748 615.502014893 119 628 c 0
 125.032226563 701.470703125 205.656269566 691.051546886 259 696 c 0
 316.868164062 701.368164062 361.644806314 650.364207683 367 592 c 0
 373.357421875 522.712890625 323.913317397 481.416210201 283 432 c 0
 255.67578125 398.997070312 221.388083681 380.456066953 187 360 c 0
 169.94140625 349.852539062 146.436523438 348 127 348 c 0
 99.54296875 348 95 374.893554688 95 396 c 0
 95 410.604492188 99.2867745485 426.006522884 115 424 c 0
 161.221679688 418.09765625 189.033838584 362.536020817 203 320 c 0
 219.921875 268.461914062 226.9453125 132 299 132 c 0
 313.6875 132 320.03515625 136.579101562 335 140 c 0
 375 156 l 1025
EndSplineSet
EndChar
StartChar: uni0988
Encoding: 2440 2440 104
Width: 896
Flags: W
LayerCount: 2
Fore
SplineSet
85 1116 m 0
 105.754255244 1058.28711519 110.52197406 927.916880358 193 916 c 0
 235.918581838 915.418649476 277.709330197 934.105033064 317 948 c 0
 367.832678536 965.976745906 605 997.896839512 605 940 c 0
 605 868.992898721 521 828.646457846 521 768 c 0
 521 750.777270776 536.95206758 752 549 752 c 0
 612.426768623 752 679.59425105 779.140160655 741 792 c 0
 905 776 l 1025
9 780 m 0
 29.4044509985 778.063412045 49.0652367344 774.245713648 69 772 c 0
 111.703893004 767.189272425 165 743.669117045 165 692 c 0
 165 685.60200557 154.363665759 612 149 612 c 0
 139.475761259 612 93 616.479760481 93 628 c 0
 93 645.454662786 111.240263449 728 137 728 c 0
 152.781492149 728.669998622 167.083083044 726.179168796 181 724 c 0
 305.065800252 704.573260483 321 637.634576056 321 495 c 0
 321 458.93253205 89.323574023 75 37 75 c 0
 65.5880548624 75 737 682.655693461 737 724 c 0
 637.622144074 656.93246029 575.812708405 554.805825605 529 447 c 0
 502.831467075 401.19010863 493.919472805 343.282084273 493 287 c 0
 492.996744201 235.55879296 497.462201965 136.301846285 561 131 c 0
 613.991839219 128.35365846 654.650979473 95.9636600766 705 91 c 0
 732.596819305 88.279366534 762.370871849 92.8719999227 781 111 c 0
 825 163 l 1025
EndSplineSet
EndChar
StartChar: uni0989
Encoding: 2441 2441 105
Width: 644
Flags: W
LayerCount: 2
Fore
SplineSet
81 976 m 0
 93.0070627618 943.402244065 136.675088659 898.244086422 181 888 c 0
 265.533111697 888 326.361303825 956 405 956 c 0
 419.694182099 956 417 945.418742506 417 936 c 0
 418.480172346 912.649322901 415.950016924 886.411120251 393 876 c 0
 391.703843979 875.412007571 345 792 345 792 c 0
 345 784.559637473 357.291637342 779.476601581 361 776 c 0
 589 780 l 0
 645 784 l 1025
5 772 m 1
 13 772 l 0
 55.4927272864 765.758222137 106.770454189 780.034355887 153 776 c 0
 242.902418169 770.983832681 372.108523154 758.454739838 345 644 c 0
 334.107932623 598.012664917 313 556.760479819 313 507 c 0
 313 494.816046725 307.439037213 475 325 475 c 0
 342.172844674 470.340136153 346.388967492 492.394222452 361 495 c 0
 388.353470616 499.878304086 410.375650361 556 449 556 c 0
 467.30151494 551.860645683 480.022786263 531.663189775 489 516 c 0
 536.950380334 472.20337008 535.021402289 414.857002886 537 355 c 0
 538.319687174 307.515586638 533.353968219 256.917740615 509 215 c 0
 496.483967725 167.506262517 473.496249327 82.7121578795 409 87 c 0
 377.581633556 89.0887570425 348.430581863 95 317 95 c 0
 248.669138784 95 217.422220389 228.506929275 189 267 c 0
 149 411 l 0
 145 439 l 1025
EndSplineSet
EndChar
StartChar: uni098A
Encoding: 2442 2442 106
Width: 500
Flags: W
LayerCount: 2
Fore
SplineSet
21 964 m 0
 24.5293858433 940.587704295 45.4586650019 868 85 868 c 0
 133.013576673 868 166.23136418 904 213 904 c 0
 266.98786098 904 285 909.322149619 285 860 c 0
 285 821.296729943 220.547015772 781.497673104 237 784 c 0
 264.900360946 788.24335322 318.865621573 797.398412252 361 804 c 0
 419.541745225 813.172283595 433.631844773 796.501790917 475 781 c 0
 502 781 l 1025
122 91.599609375 m 0
 122 91.599609375 84 122 55 122 c 3
 27.2972972973 122 14 266 14 266 c 1025
0 781 m 0
 62.1166223873 733.53959403 194.638628886 784.96451029 257 748 c 0
 237 628 l 0
 231.399775748 573.954889041 206.124179045 529.346229377 205 475 c 0
 204.070811544 430.080207893 181 382.838411154 181 339 c 0
 181 333.980379322 197.425497581 335 201 335 c 0
 269.198319274 335 286.807931239 507 373 507 c 0
 406.659350138 507 451.364031748 395.675004432 453 367 c 0
 455.381091362 325.264590228 439.830980685 288.111920704 421 251 c 0
 364.009327716 138.683315802 263.585132649 87 141 87 c 0
 50.0112664055 87 46.150610841 350.792899353 29 399 c 1024
EndSplineSet
EndChar
StartChar: uni098B
Encoding: 2443 2443 107
Width: 614
Flags: W
LayerCount: 2
Fore
SplineSet
295 278 m 0
 378.327148438 252.2890625 487.044921875 200.958984375 479 96 c 0
 479 82.6826171875 449.610351562 88 441 88 c 0
 372.920898438 88.314453125 401.61328125 184.280273438 395 230 c 0
 384.8359375 387.280273438 429.439453125 546.483398438 495 686 c 0
 509.055664062 715.912109375 563.747070312 822.842773438 615 780 c 1024
-1 784 m 0
 7.3486328125 782.333984375 8.1962890625 771.059570312 15 766 c 0
 33.0048828125 752.609375 33.9296875 742 61 742 c 0
 71.2109375 742 87 743.291015625 87 758 c 0
 87 758.30859375 62.8623046875 764 61 764 c 0
 55.177734375 764 51 734.83203125 51 730 c 0
 45.4619140625 704.547851562 74.6806640625 704.172851562 93 702 c 0
 113.534179688 699.564453125 191 731.104492188 191 756 c 0
 191 758.471679688 187.413085938 758 187 758 c 0
 169.595703125 758 153 712.18359375 153 700 c 0
 153 688 164.120117188 690 173 690 c 0
 192.694335938 688.96875 210.9296875 701.94921875 229 710 c 0
 258.32421875 719.879882812 277.866210938 748.244140625 299 770 c 0
 313.455078125 796.946289062 284.296875 734.453125 287 722 c 0
 274.208007812 697.036132812 265.225585938 669.58984375 255 644 c 0
 247.666992188 536.6015625 85.626953125 442.975585938 67 410 c 0
 186.762695312 385.044921875 258.334960938 260.662109375 307 156 c 0
 315.768554688 137.140625 306.552734375 80 285 80 c 0
 267.561523438 98.4482421875 259.565429688 123.416992188 263 150 c 0
 272.006835938 219.717773438 331.950195312 760 423 760 c 0
 439.727539062 755.4609375 445.776367188 731.5546875 461 722 c 1024
EndSplineSet
EndChar
StartChar: uni098C
Encoding: 2444 2444 108
Width: 442
Flags: W
LayerCount: 2
Fore
SplineSet
118 208 m 1
 118 204 l 0
 118 201.891623815 105.234664603 200 100 200 c 0
 63.1406264106 200 52 231.890063769 52 264 c 0
 52 308.88177828 114.865663736 298 144 298 c 0
 195.715561011 288.36554517 255.018433478 252.508596649 246 194 c 0
 249.882777221 154.619070082 223.653612362 122.771975039 192 108 c 0
 167.466061913 96.5506046868 180 92 180 92 c 0
 193.682380097 92 207.721986262 90 222 90 c 0
 328.108529414 90 394 187.462263861 394 284 c 0
 394 513.453894355 68 610.060488297 68 772 c 0
 68 784 l 0
 68 789.2342465 85.3728996114 795.265793799 90 798 c 1024
EndSplineSet
EndChar
StartChar: uni098F
Encoding: 2447 2447 109
Width: 362
Flags: W
LayerCount: 2
Fore
SplineSet
-0 774 m 5
 82 778 l 4
 116.366854019 778 176 771.017940169 176 730 c 4
 176 717.579844489 170.075706944 700 156 700 c 4
 147.259155677 700 150 702.758352527 150 710 c 4
 150 740.649664581 168.505520278 772 204 772 c 4
 218.725105211 772 250.764246801 734.768061273 264 724 c 4
 284 648 l 4
 290 576 l 4
 284 522 l 4
 272 480 l 4
 248.356418741 393.856002887 246.976612902 301.16601395 256 212 c 4
 259.398316247 178.419005349 288 140.535943004 288 110 c 4
 288 125.173615087 245.064162613 158 230 158 c 4
 204.745314036 157.337803607 178.08201943 157.668696023 160 140 c 4
 143.189442047 133.20181793 130.571973244 118.373224121 114 114 c 4
 93.9589593568 108.711314032 75.8991763749 90 56 90 c 4
 19.7708168471 90 21.8711274864 128.062976865 8 144 c 4
 14 150 l 1029
EndSplineSet
EndChar
StartChar: uni0990
Encoding: 2448 2448 110
Width: 362
Flags: W
LayerCount: 2
Fore
SplineSet
20 910 m 4
 31.6096160196 865.275898533 69.9902892203 849.797298288 112 854 c 4
 156.642927342 846.987274051 191.87895158 870.163714097 236 870 c 4
 266.628998413 876.098482818 260.583945014 832.405430996 266 812 c 4
 267.64494833 805.802522364 269.242572215 781.673264219 268 776 c 4
 346 774 l 4
 370 776 l 1029
-0 774 m 1
 82 778 l 0
 116.366854019 778 176 771.017940169 176 730 c 0
 176 717.579844489 170.075706944 700 156 700 c 0
 147.259155677 700 150 702.758352527 150 710 c 0
 150 740.649664581 168.505520278 772 204 772 c 0
 218.725105211 772 250.764246801 734.768061273 264 724 c 0
 284 648 l 0
 290 576 l 0
 284 522 l 0
 272 480 l 0
 248.356418741 393.856002887 246.976612902 301.16601395 256 212 c 0
 259.398316247 178.419005349 288 140.535943004 288 110 c 0
 288 125.173615087 245.064162613 158 230 158 c 0
 204.745314036 157.337803607 178.08201943 157.668696023 160 140 c 0
 143.189442047 133.20181793 130.571973244 118.373224121 114 114 c 0
 93.9589593568 108.711314032 75.8991763749 90 56 90 c 0
 19.7708168471 90 21.8711274864 128.062976865 8 144 c 0
 14 150 l 1025
EndSplineSet
EndChar
StartChar: uni0993
Encoding: 2451 2451 111
Width: 362
Flags: W
LayerCount: 2
Fore
SplineSet
6 780 m 0
 10.6650226751 783.041580351 17.387164638 783.054023692 24 784 c 0
 44.7283263185 784 114 778.253139318 114 746 c 0
 114 712.897556139 74 712 74 712 c 0
 73.0416930005 739.027241184 99.1303815625 763.907997877 126 760 c 0
 192.366484766 759.606310706 213.043014292 677.694239456 222 624 c 0
 234.429778522 549.487488079 169.722100363 458 92 458 c 0
 81.9956405997 458 68 491.146873526 68 504 c 0
 68 517.616774292 97.2592939042 522 108 522 c 0
 217.518017809 524.694289765 278.015280986 421.453697538 272 318 c 0
 285.431246258 231.142444727 221.853306061 161.53543517 158 116 c 0
 108.515556548 80.7113703939 40 87.1817512419 40 162 c 0
 40 174 l 0
 22 270 l 1025
EndSplineSet
EndChar
StartChar: uni0994
Encoding: 2452 2452 112
Width: 368
Flags: W
LayerCount: 2
Fore
SplineSet
33 1148 m 0
 36.6455078125 1118.70898438 30.3110324935 1091.38378369 25 1060 c 0
 11.1953125 978.42578125 89.4572635648 923.531160896 165 940 c 0
 192.10546875 945.909179688 237 955.359375 237 924 c 0
 237 867.133789062 173 841.194335938 173 800 c 0
 173 788.48046875 213.800783596 743.355024943 225 744 c 0
 244.110351562 745.100585938 263.286448487 757.546681641 281 760 c 0
 310.341045673 764.063720703 414.188713366 762.468547772 369 770 c 1024
6 780 m 0
 10.6650226751 783.041580351 17.387164638 783.054023692 24 784 c 0
 44.7283263185 784 114 778.253139318 114 746 c 0
 114 712.897556139 74 712 74 712 c 0
 73.0416930005 739.027241184 99.1303815625 763.907997877 126 760 c 0
 192.366484766 759.606310706 213.043014292 677.694239456 222 624 c 0
 234.429778522 549.487488079 169.722100363 458 92 458 c 0
 81.9956405997 458 68 491.146873526 68 504 c 0
 68 517.616774292 97.2592939042 522 108 522 c 0
 217.518017809 524.694289765 278.015280986 421.453697538 272 318 c 0
 285.431246258 231.142444727 221.853306061 161.53543517 158 116 c 0
 108.515556548 80.7113703939 40 87.1817512419 40 162 c 0
 40 174 l 0
 22 270 l 1025
EndSplineSet
EndChar
StartChar: uni0995
Encoding: 2453 2453 113
Width: 692
Flags: W
LayerCount: 2
Fore
SplineSet
-4 778 m 0
 -11.3151441389 772.718420022 7.53259383676 775.870610177 10 776 c 0
 59.1759618814 778.578768384 107.819240793 770.521700075 158 772 c 0
 230.848161117 774.146070183 303.779590188 760.004536998 378 764 c 0
 412.786367104 765.872633728 521.802881709 774 488 774 c 0
 367.56666289 774 249.36049699 396 38 396 c 0
 19.171233316 396 6 432.54177194 6 448 c 0
 6 457.782734453 83.3312944742 452.882571227 92 450 c 0
 114.903350083 442.384037299 135.641112429 433.272659383 158 420 c 0
 252.796141708 363.72721381 324.556931673 276.082377298 362 158 c 0
 372.752530119 124.090270505 346.40273147 64.6279104727 322 122 c 0
 315.496149236 137.290891053 309.595411284 151.673523947 308 168 c 0
 296.750118632 283.124495224 382.235779904 556 530 556 c 0
 598.09914024 556 610 473.760244622 610 420 c 0
 610 379.457383358 591.955899536 348 548 348 c 0
 483.6453763 348 391.888024607 395.930195828 398 464 c 0
 399.456294205 480.218923502 400.000494647 496.495421236 406 512 c 0
 443.393022984 608.635145068 371.542250931 785.454417614 587 781 c 0
 601.202569158 780.706373178 672.966480992 782.994471661 694 782 c 1024
EndSplineSet
EndChar
StartChar: uni0996
Encoding: 2454 2454 114
Width: 524
Flags: W
LayerCount: 2
Fore
SplineSet
-3 784 m 0
 7.80497508548 746.239364836 55.8049075297 721.125456836 95 720 c 0
 113.480210079 720 133 728.092350523 133 756 c 0
 133 760.655298783 121.56138995 764 115 764 c 0
 45.2665399524 764 11 702.330508777 11 644 c 0
 11 569.486414682 64.19306071 562 123 562 c 0
 199.545711064 552.980637118 257.122784014 614.782988605 297 672 c 0
 312.990563595 694.94373458 313 674 313 674 c 0
 313 543.268753857 182.925683348 476.51933746 123 386 c 0
 23 332 l 0
 63 338 l 0
 79 338 l 0
 189.943774624 315.021674843 326.790673088 265.517722582 363 150 c 0
 365.217129763 142.926745599 363 133.68721231 363 128 c 0
 363 125.44691418 361.210724338 92 355 92 c 0
 341.183831667 93.1798090749 353.624454441 125.691962993 343 142 c 0
 319.684802823 177.787729196 321 277.724768163 321 320 c 0
 321.733748296 369.9673718 328.049786203 420.620649604 343 470 c 0
 370.512723975 558.963592997 380.817331994 661.426159688 433 736 c 0
 448.034424373 757.485577592 495.48516625 804.211547365 525 786 c 1024
EndSplineSet
EndChar
StartChar: uni0997
Encoding: 2455 2455 115
Width: 492
Flags: W
LayerCount: 2
Fore
SplineSet
27 738 m 1024
15 516 m 0
 25.0901575521 465.727143014 71.7323947249 405.792447681 123 414 c 0
 162.4859778 420.359054364 215.157203608 438.062165915 217 486 c 0
 204.997424454 582.542738101 45.56599619 595.241589692 49 708 c 0
 47.2384296045 755.343345646 91.8835050096 795.588008133 137 798 c 0
 153.625130906 798.888803098 170.583549574 800 187 800 c 0
 341.139510164 799.676566085 346.956993836 612.631550439 339 494 c 0
 333.143113687 379.883753654 356.429082001 260.553262139 315 154 c 0
 302.366287261 121.506803427 301.54848568 90 261 90 c 0
 234.680912178 101.774874204 238.349202656 149.444214221 241 180 c 0
 231.354351545 304.084687384 264.495081704 424.377596922 299 542 c 0
 312.486202239 591.204342455 324.94936068 641.172378078 351 684 c 0
 370.410973633 718.227171694 389.421888172 758.497805434 433 768 c 0
 443.110745717 770.204645153 457.401594761 780 467 780 c 0
 473 780 l 0
 491 786 l 1025
EndSplineSet
EndChar
StartChar: uni0998
Encoding: 2456 2456 116
Width: 576
Flags: W
LayerCount: 2
Fore
SplineSet
0 781 m 1
 199 776 l 0
 295 777 l 0
 376.671641791 780.834345599 372.301981071 766.952210017 447 778 c 0
 464.108159087 780.530285961 399.236416749 752.15739875 398 753 c 0
 364.073935406 776.120153028 -58.3933757552 764.359746769 47 482 c 0
 72.7120172717 413.114848218 100.738270384 376 169 376 c 0
 178.986518174 376 292.104906938 390.625186202 269 404 c 0
 240.082659985 420.739476132 207.750198557 435.687521978 171 434 c 0
 95.9459002098 430.55361201 5 372.603705383 5 290 c 0
 5 96.0970771112 241.584096868 88 383 88 c 0
 393.224755967 88 459.993323466 91.3832410937 455 106 c 0
 448.9386583 123.743126573 454.196268367 142.104347482 449 162 c 0
 438.959677388 200.442735395 453.552120656 240.809053266 455 282 c 0
 458.422850247 379.377203971 460.639932644 479.110103892 473 578 c 0
 478.497066702 621.980695201 477.0085859 670.669240169 447 702 c 0
 430.568899909 719.155051972 434.527639947 774 492 774 c 0
 509.580308414 774 525.293381787 776.659460257 543 778 c 0
 554.376998217 778.861334338 565.788426539 780.880727942 577 781 c 1024
EndSplineSet
EndChar
StartChar: uni0999
Encoding: 2457 2457 117
Width: 556
Flags: W
LayerCount: 2
Fore
SplineSet
-8 779 m 1
 -4 779 l 0
 5.61023688613 772.780507162 10.9888909698 762.512249685 18 755 c 0
 78.4669658254 688.309088124 169.590332099 661.596265584 252 645 c 0
 306.798139331 630.517332983 374.637673717 669.060816345 370 729 c 0
 367.344606745 763.319383749 354.814762663 781 318 781 c 0
 259.992044478 791.590780347 234.488614613 734.487640285 222 689 c 0
 216.800675543 670.062350955 214 651.322254284 214 631 c 0
 214 519.240305752 250.143898345 461 362 461 c 0
 453.978774132 462.909194746 534.728567732 561.386823777 518 419 c 0
 522.244266229 293.464881549 482.934101222 145.861018115 360 99 c 0
 348.344834145 94.5571893167 333.070222563 91 318 91 c 0
 235.155499826 84.4431870901 174.731727236 125.533033372 134 195 c 0
 105.836750658 228.713594032 88.757213924 269.888398838 68 309 c 0
 54.5679940476 334.309141272 30.6011804744 383.277239035 26 393 c 1024
EndSplineSet
EndChar
StartChar: uni099A
Encoding: 2458 2458 118
Width: 560
Flags: W
LayerCount: 2
Fore
SplineSet
288 781 m 5
 462 791 l 0
 487.427984787 793.148842271 509.870216273 790.107875603 534 797 c 0
 549.31808405 801.375262621 553.403510629 792.638434132 558 781 c 1024
10 781 m 0
 14.5982029381 781.026283082 18.603460941 781.190883397 22 781 c 0
 77.1846572634 777.89865635 132.088841562 762.817471838 186 771 c 0
 205.432008357 773.949351493 228.717770394 785 246 785 c 0
 252.542032878 785 250 786.374532064 250 783 c 0
 250 783 239.367890724 767.57072087 236 763 c 0
 240 675 l 0
 234 569 l 0
 224 491 l 0
 219.073874533 475.319639696 218.732732759 458.411078125 216 441 c 0
 207.044363736 383.940896013 192.407006775 322.292470178 214 267 c 0
 235.598968854 211.692228226 204.185717039 90.2703865927 282 83 c 0
 365.484747149 75.1998074997 433.972537207 117.746737125 424 207 c 0
 417.606153232 264.224322609 402.917896449 330.340419513 362 373 c 0
 334.288202816 401.89135916 284.609373692 411.664504943 242 407 c 0
 204 409 l 1025
EndSplineSet
EndChar
StartChar: uni099B
Encoding: 2459 2459 119
Width: 506
Flags: W
LayerCount: 2
Fore
SplineSet
265.415039062 781 m 1
 395.415039062 779 l 0
 491.415039062 777 l 0
 507.415039062 781 l 1025
1.4150390625 779 m 0
 -0.4267578125 779.357421875 -1.6943359375 779.03515625 -0.5849609375 775 c 0
 32.154296875 775.614257812 64.646484375 773.336914062 95.4150390625 777 c 0
 118.7109375 779.7734375 227.415039062 783.404296875 227.415039062 761 c 0
 213.329101562 723.047851562 192.774414062 690.598632812 171.415039062 657 c 0
 150.79296875 612.375 120.809570312 570.69140625 123.415039062 519 c 0
 124.01171875 492.213867188 125.486328125 463.685546875 139.415039062 441 c 0
 152.024414062 422.440429688 163.323242188 397.171875 187.415039062 397 c 0
 262.099609375 396.466796875 329.415039062 431.045898438 329.415039062 519 c 0
 329.9375 539.176757812 312.647460938 555.138671875 291.415039062 551 c 0
 247.916992188 589.401367188 172.172851562 493.203125 187.415039062 511 c 0
 226.93359375 557.143554688 221.036132812 585 297.415039062 585 c 0
 321.595703125 586.13671875 346.23828125 583.663085938 365.415039062 573 c 0
 407.583007812 549.551757812 425.415039062 517.306640625 425.415039062 469 c 0
 426.913085938 447.12109375 415.646484375 427.0625 403.415039062 409 c 0
 342.930664062 319.684570312 255.595703125 243 141.415039062 243 c 0
 130.166992188 243 123.415039062 247.944335938 123.415039062 261 c 0
 123.415039062 273.549804688 139.483398438 285 149.415039062 285 c 0
 191.573242188 272.008789062 202.401367188 221.12109375 223.415039062 187 c 0
 236.711914062 165.407226562 248.56640625 146.57421875 261.415039062 127 c 0
 305.415039062 101 l 0
 371.415039062 97 l 1025
EndSplineSet
EndChar
StartChar: uni099C
Encoding: 2460 2460 120
Width: 520
Flags: W
LayerCount: 2
Fore
SplineSet
395 777 m 1
 521 779 l 1025
-1 781 m 0
 97.177734375 777.655273438 196.870117188 763.8515625 295 775 c 0
 318.23828125 777.639648438 344.790039062 777 365 777 c 0
 365 777 117 580.577148438 117 493 c 0
 117 504.168945312 203.66015625 505 205 505 c 0
 269.260742188 505 315 462.237304688 315 399 c 0
 315 319.525390625 188.068359375 289 127 289 c 0
 63.2470703125 289 3 336.021484375 3 403 c 0
 3 489.374023438 70.1279296875 569 157 569 c 0
 271.237304688 569 385 519.91796875 385 395 c 0
 379.89453125 310.568359375 297.981445312 263.151367188 229 229 c 0
 204.793945312 217.015625 101 180.858398438 101 145 c 0
 99.759765625 130.344726562 119.11328125 137.7578125 125 131 c 0
 161.764648438 88.7978515625 266.573242188 108.415039062 313 103 c 1024
EndSplineSet
EndChar
StartChar: uni099D
Encoding: 2461 2461 121
Width: 727
Flags: W
LayerCount: 2
Fore
SplineSet
364 347 m 0
 435.743948482 308.355374233 500.436320375 236.489531319 490 149 c 0
 488.274335297 134.533445638 490 120.157717409 490 107 c 0
 490 97.3823207193 482.717875336 85.3789606696 478 92 c 0
 453.516949089 126.359373973 456.648703964 179.860025212 454 224 c 0
 447.794061741 327.420375402 477.83759988 426.031732623 514 524 c 0
 547.145413882 613.794890791 582.859545941 695.770733543 621 781 c 0
 727 781 l 1029
4 782 m 1
 130 800 l 0
 280 794 l 0
 376 788 l 0
 380.28170202 787.394504622 475 773 475 773 c 0
 475 760.456698637 45.040781759 371 4 371 c 0
 -5.2497253418 371 -2 368.099996567 -2 374 c 0
 -2 419.824726732 66.8774991442 451.898598538 106 449 c 0
 141.941930175 446.337050955 171.891007614 424.677304188 205 410 c 0
 291.20351204 371.785754351 366.092215098 287.287084281 385 191 c 0
 388.150924784 174.954050577 393.842096902 161.969942488 391 146 c 0
 387.227729541 124.80334684 403.577756565 78.6105768693 391 125 c 0
 383.149765752 153.953322185 376 181.209531698 376 212 c 0
 376 261.177730006 370.524651372 312.763046069 367 365 c 0
 360.518550029 461.058068668 379.546911856 557.084601884 415 647 c 0
 428.104249262 680.234729359 436.378438849 729.015831426 472 749 c 0
 559 776 l 1025
EndSplineSet
EndChar
StartChar: uni099E
Encoding: 2462 2462 122
Width: 456
Flags: W
LayerCount: 2
Fore
SplineSet
292 638 m 0
 313.64478053 647.930550234 360.158018183 677.648013656 396 670 c 0
 441.424297327 670 460 624.485892818 460 586 c 0
 460 563.016410416 435.529858961 492 406 492 c 0
 383.8543645 492 340 490.547838545 340 516 c 0
 343.31361336 524.389836286 355.456885898 525.341048546 366 524 c 0
 415.74293283 529.939264703 447.955631479 480.911271118 446 434 c 0
 447.679938031 401.268509633 432.976267233 372.943537637 406 354 c 0
 356.680716866 347.398060347 265.799009732 352.700580046 256 400 c 0
 241.623944398 493.956228666 283.129819574 580.841536572 308 668 c 0
 311.820280633 681.388314202 342.313690109 754.752342794 360 754 c 0
 414 778 l 0
 462 780 l 1025
-0 774 m 1
 82 778 l 0
 116.366854019 778 176 771.017940169 176 730 c 0
 176 717.579844489 170.075706944 700 156 700 c 0
 147.259155677 700 150 702.758352527 150 710 c 0
 150 740.649664581 168.505520278 772 204 772 c 0
 218.725105211 772 250.764246801 734.768061273 264 724 c 0
 284 648 l 0
 290 576 l 0
 284 522 l 0
 272 480 l 0
 248.356418741 393.856002887 246.976612902 301.16601395 256 212 c 0
 259.398316247 178.419005349 288 79.4640569965 288 110 c 0
 288 125.173615087 245.058986774 158.394857681 230 158 c 0
 204.745314036 157.337803607 183.437338396 149.478049099 160 140 c 0
 143.189442047 133.20181793 130.571973244 118.373224121 114 114 c 0
 93.9589593568 108.711314032 75.8991763749 90 56 90 c 0
 19.7708168471 90 21.8711274864 128.062976865 8 144 c 0
 14 150 l 1025
EndSplineSet
EndChar
StartChar: uni099F
Encoding: 2463 2463 123
Width: 482
Flags: W
LayerCount: 2
Fore
SplineSet
149 1164 m 0
 152.645507812 1134.70898438 146.311032493 1107.38378369 141 1076 c 0
 127.1953125 994.42578125 205.457263565 939.531160896 281 956 c 0
 308.10546875 961.909179688 353 971.359375 353 940 c 0
 353 883.133789062 289 857.194335938 289 816 c 0
 289 804.48046875 329.800783596 759.355024943 341 760 c 0
 360.110351562 761.100585938 379.286448487 773.546681641 397 776 c 0
 426.341045673 780.063720703 530.188713366 778.468547772 485 786 c 1024
10 776 m 1
 266 776 l 0
 294.265549738 780.915737093 267.550231484 780 290 780 c 0
 180.185256709 679.446217182 206.595483599 482.348955655 172 338 c 0
 164.083394455 304.968123471 164 270.061779437 164 236 c 0
 159.460910836 168.088487925 194.795927778 90.9639302985 270 100 c 0
 350.383308428 109.658375622 384 122.057107308 384 222 c 0
 384 235.281363894 381.742152236 322 356 322 c 0
 321.198013128 322 272 289.394737813 272 256 c 0
 272 241.238141634 274.344310897 222 292 222 c 0
 320.273478739 219.749827105 346.414798158 234.178153835 370 248 c 1024
EndSplineSet
EndChar
StartChar: uni09A0
Encoding: 2464 2464 124
Width: 484
Flags: W
LayerCount: 2
Fore
SplineSet
219 782 m 0
 214.5 774.166992188 220 776.333007812 223 776 c 0
 273.891601562 776 325.389648438 794 377 794 c 0
 408.456054688 794 438.58203125 784.470703125 467 780 c 0
 485 778 l 1025
-1 778 m 0
 35.2578125 768.984375 78.73046875 775.184570312 115 762 c 0
 159.139648438 750.358398438 203.907226562 728.310546875 237 698 c 0
 274.27734375 663.856445312 299 633.772460938 299 580 c 0
 299 414.774414062 141 306.112304688 141 150 c 0
 143.508789062 119.481445312 177.14453125 101.922851562 205 104 c 0
 237.555664062 106.427734375 273.572265625 96 307 96 c 0
 413.028320312 96 461 197.805664062 461 290 c 0
 426.845703125 439.7578125 435.029296875 703.9296875 245 742 c 0
 174.298828125 756.1640625 41 767.387695312 41 850 c 0
 41 885.880859375 90.6396484375 889.689453125 109 904 c 0
 163 906 l 1025
EndSplineSet
EndChar
StartChar: uni09A1
Encoding: 2465 2465 125
Width: 490
Flags: W
LayerCount: 2
Fore
SplineSet
341 784 m 1
 491 786 l 1025
-1 784 m 0
 18.3330078125 784 37.6669921875 784 57 784 c 0
 142.286132812 784 228.513671875 790 313 790 c 0
 269.180664062 790 91 557.779296875 91 460 c 0
 91 456.940429688 97.388671875 458 99 458 c 0
 155.876953125 458 220.967773438 588 303 588 c 0
 377.733398438 588 411 499.102539062 411 440 c 0
 411 355.029296875 352.326171875 80 247 80 c 0
 153.556640625 80 126.374023438 194.786132812 73 246 c 0
 25 420 l 0
 19 474 l 1025
EndSplineSet
EndChar
StartChar: uni09A3
Encoding: 2467 2467 127
Width: 554
Flags: W
LayerCount: 2
Fore
SplineSet
-1 778 m 1
 5 778 l 0
 56.685546875 778.068359375 111.84765625 761.555664062 149 724 c 0
 176.9140625 695.783203125 197 652.159179688 197 612 c 0
 197 597.716796875 168.3125 505.25390625 159 524 c 0
 150.71875 540.670898438 141.877929688 552.892578125 145 576 c 0
 153.600585938 639.654296875 173.997070312 703.288085938 215 756 c 0
 229.766601562 774.983398438 249.786132812 791.025390625 273 796 c 0
 350.481445312 812.604492188 370.385742188 690.599609375 379 628 c 0
 391.450195312 537.530273438 399.80859375 445.377929688 401 352 c 0
 401.817382812 287.931640625 402.100585938 221.629882812 391 160 c 0
 387.737304688 141.885742188 387.55859375 86.3134765625 363 86 c 0
 322.840820312 85.48828125 324.163085938 140.512695312 329 170 c 0
 336.671875 216.76953125 332.202148438 266.5078125 333 314 c 0
 335.258789062 448.404296875 349.177734375 588.89453125 413 708 c 0
 418.69140625 718.620117188 473 786 473 786 c 0
 555 781 l 1029
EndSplineSet
EndChar
StartChar: uni09A4
Encoding: 2468 2468 128
Width: 612
Flags: W
LayerCount: 2
Fore
SplineSet
-1 778 m 0
 33 778 67 778 101 778 c 0
 206.670898438 778 283 740.10546875 283 632 c 0
 283 609.747070312 262.950195312 564 235 564 c 0
 231.524414062 564 229 587.890625 229 592 c 0
 229 639.249023438 295.463867188 686 339 686 c 0
 403.374023438 686 417.206054688 640.805664062 463 614 c 0
 491 552 l 0
 511 480 l 0
 521 392 l 0
 519 280 l 0
 510.157226562 249.881835938 504.446289062 219.396484375 483 196 c 0
 457.880859375 165.205078125 434.491210938 124.6328125 397 112 c 0
 309.799804688 82.6171875 91 99.634765625 91 236 c 4
 77 386 l 4
 77 457.43359375 122.479492188 766 241 766 c 0
 251 766 l 0
 299.081054688 783.288085938 351.630859375 784.89453125 403 786 c 0
 473.322265625 787.966796875 543.594726562 784.791992188 613 774 c 1024
EndSplineSet
EndChar
StartChar: uni09A5
Encoding: 2469 2469 129
Width: 578
Flags: W
LayerCount: 2
Fore
SplineSet
-1 778 m 1
 5 778 l 0
 30.66015625 778 83 769.864257812 83 734 c 0
 83 711.901367188 85 689.938476562 85 668 c 0
 85 661.5234375 82.55078125 652 75 652 c 0
 51.17578125 652 41 682.299804688 41 700 c 0
 41.1611328125 743.940429688 78.9921875 779.236328125 121 778 c 0
 201.176757812 775.639648438 235 702.790039062 235 628 c 0
 235 528.171875 124.1796875 398 15 398 c 0
 9.8974609375 398 11 401.02734375 11 404 c 0
 11 409.88671875 23.1806640625 412 27 412 c 0
 176.4765625 412 237.698242188 205.78515625 329 116 c 0
 327 78 l 0
 319 120 l 0
 319 130 l 0
 312.563476562 139.139648438 310.73828125 151.760742188 315 162 c 0
 316.35546875 189.502929688 331.389648438 215.08203125 329 244 c 0
 351.223632812 393.826171875 370.634765625 556.340820312 465 678 c 0
 469.82421875 684.21875 545 776 545 776 c 0
 579 786 l 1025
EndSplineSet
EndChar
StartChar: uni09A6
Encoding: 2470 2470 130
Width: 472
Flags: W
LayerCount: 2
Fore
SplineSet
271 782 m 1
 477 784 l 1025
-5 784 m 0
 -2.3330078125 784 0.3330078125 784 3 784 c 0
 38.7783203125 784 74.986328125 780 111 780 c 0
 157.215820312 779.676757812 201.84375 787.046875 245 796 c 0
 265.754882812 800.305664062 33 424.202148438 33 354 c 0
 36.107421875 337.73828125 59.328125 358.524414062 63 366 c 0
 97.3701171875 435.98046875 255.80859375 532 335 532 c 0
 277.459960938 532 197 187.12109375 197 134 c 0
 197 121.177734375 200.020507812 88 217 88 c 0
 229.485351562 84.9423828125 208.609375 95.7041015625 213 96 c 1024
EndSplineSet
EndChar
StartChar: uni09A7
Encoding: 2471 2471 131
Width: 471
Flags: W
LayerCount: 2
Fore
SplineSet
0 792 m 0
 94.1531145248 790.855559023 225.112138824 823.217020084 268 922 c 0
 268 926.557157567 240 924 240 924 c 0
 204.194053659 924 166.704740598 918 130 918 c 0
 85.761862466 884.172762033 41.0057615459 845.228890694 34 790 c 0
 31.4607193903 769.981954807 30 751.10069698 30 730 c 0
 25.9717282758 694.775387078 63.1487935411 675.198451624 94 674 c 0
 175.848884859 628.437516982 352.556199532 801.28160015 346 762 c 0
 324.442833083 632.839804817 16 500.941747075 16 410 c 0
 16 409.8 17.5 410 24 410 c 0
 36 410 l 0
 168.596130888 414.902997413 267.454528135 277.983347014 294 162 c 0
 321.088736293 43.643004218 248 154 248 154 c 0
 264.099484897 291.611337657 267.919868587 433.085031203 316 564 c 0
 331.509601696 623.405593422 359.960275444 682.419915417 386 738 c 0
 387.736943926 741.707392916 417.409727376 787.480463424 424 780 c 0
 472 788 l 1025
EndSplineSet
EndChar
StartChar: uni09A8
Encoding: 2472 2472 132
Width: 543
Flags: W
LayerCount: 2
Fore
SplineSet
132 282 m 0
 138.47232149 271.994814042 143.413266158 260.366075879 142 248 c 0
 142 235.715931402 142.043845854 196 122 196 c 0
 111.851566027 196 102.13139086 194 92 194 c 0
 59.645111747 196.521045348 32.6299911199 220.778461307 32 252 c 0
 31.7580649898 263.989983737 32 276.007474249 32 288 c 0
 31.981989418 313.3794832 37.6248564298 340.471394109 52 360 c 0
 75.0351413495 392.604701057 110.941137607 420.06358213 150 422 c 0
 279.846869825 428.437407125 382 283.555954594 382 164 c 0
 380.839799101 146.179777193 378.680698322 109.127441758 354 112 c 0
 314.435244558 100.310418277 270.411172344 126.793798895 266 166 c 0
 259.862601006 220.548786681 240 265.529607061 240 322 c 0
 239.968698949 409.005952632 262.306928378 493.165565291 302 570 c 0
 339.244947429 661.121517137 420.190991251 724.515994173 500 764 c 0
 515.427161397 769.015624682 527.633589383 778.76509513 544 778 c 1024
-12 778 m 1
 368 778 l 0
 398.441324568 772.14858562 429.275005669 774.163870909 460 774 c 1024
EndSplineSet
EndChar
StartChar: uni09AA
Encoding: 2474 2474 133
Width: 551
Flags: W
LayerCount: 2
Fore
SplineSet
17 668 m 4
 19.0234375 674.692983774 16.1975558466 694.926420343 21 702 c 0
 35.384765625 723.1875 50.337890625 744.717773438 65 766 c 0
 129 778 l 0
 193 790 l 0
 309 790 l 0
 317 788 l 0
 383 770 l 0
 421 758 l 1025
0 781 m 0
 102.678426107 762.606065538 242.297245784 690.155505105 225 584 c 0
 215.54296875 525.9609375 201.439363141 508.126706446 227 576 c 0
 240.559570312 612.005859375 254.062148166 644.873586646 275 676 c 0
 288.7109375 696.3828125 303.959419046 715.207448298 323 730 c 0
 343.55078125 745.965820312 374.329101562 776 401 776 c 0
 432.309570312 776 432.059988662 671.839154152 433 650 c 0
 437.701171875 540.778320312 448.939172368 431.885717247 445 322 c 0
 444.485351562 307.643554688 463.14453125 98 427 98 c 0
 420.559570312 98 394.545831204 158.876768635 395 166 c 0
 396.959960937 196.740234375 391.823503124 228.179677468 391 260 c 0
 388.614257813 352.185546875 396.624619367 444.591687727 413 534 c 0
 426.389648438 607.106445312 448.19921875 657.313476562 483 720 c 0
 533 770 l 0
 567 784 l 1025
EndSplineSet
EndChar
StartChar: uni09AB
Encoding: 2475 2475 134
Width: 751
Flags: W
LayerCount: 2
Fore
SplineSet
-1 777 m 0
 151.5390625 731.547851562 286.6015625 625.9375 353 480 c 0
 353 397.314453125 131 376.052734375 131 321 c 0
 131 313.346679688 136.366210938 315 140 315 c 0
 197 315 l 0
 298.655273438 306.971679688 493.796875 289.2265625 473 147 c 0
 458.864257812 50.3251953125 443 120.068359375 443 195 c 0
 443 228.201171875 440 261.13671875 440 294 c 0
 440 381.896484375 451.497070312 537 566 537 c 0
 602.438476562 532.629882812 634.111328125 492.586914062 632 456 c 0
 629.19921875 407.465820312 641.073242188 357 572 357 c 0
 512.099609375 361.87109375 469.534179688 406.52734375 449 462 c 0
 430.430664062 501.893554688 422.576171875 540.30078125 419 585 c 0
 417.568359375 602.887695312 416 620.6953125 416 639 c 0
 416 689.091796875 451.123046875 707.64453125 470 744 c 0
 554 768 l 0
 656 777 l 0
 752 774 l 1025
EndSplineSet
EndChar
StartChar: uni09AD
Encoding: 2477 2477 136
Width: 781
Flags: W
LayerCount: 2
Fore
SplineSet
425 786 m 0
 453.325195312 795.2265625 485.420898438 785.720703125 512 798 c 0
 743 792 l 0
 782 777 l 1025
-1 777 m 1
 5 777 l 0
 69.810546875 793.14453125 135.41015625 770.94140625 200 774 c 0
 250.629882812 776.397460938 304.997070312 765 356 765 c 0
 348.403320312 765 293 745.321289062 293 723 c 0
 293 703.432617188 331.095703125 705 344 705 c 0
 368.420898438 705 422 714.424804688 422 744 c 0
 397.590820312 781.095703125 341.34765625 774.319335938 302 765 c 0
 240.584960938 752.206054688 181.231445312 718.01953125 137 669 c 0
 112.33203125 641.662109375 98 627.119140625 98 591 c 0
 98 474.349609375 282.446289062 453 362 453 c 0
 452.009765625 393.759765625 633.708007812 610.639648438 638 546 c 0
 620.484375 453.547851562 613.176757812 361.313476562 572 276 c 0
 542.633789062 189.072265625 468.390625 95.0595703125 371 87 c 0
 182.983398438 71.44140625 156.702148438 193.024414062 44 303 c 0
 17 408 l 1025
EndSplineSet
EndChar
StartChar: uni09AE
Encoding: 2478 2478 137
Width: 793
Flags: W
LayerCount: 2
Fore
SplineSet
-1 783 m 0
 200.379882812 778.588867188 406.080078125 782.139648438 608 781 c 4
 608 781 146 691.962890625 146 558 c 0
 146 522.044921875 371.142578125 447.6015625 368 327 c 0
 365.534179688 232.349609375 314.725585938 131.479492188 224 96 c 0
 213.551757812 91.9140625 205.62890625 77.986328125 194 84 c 0
 156.590820312 103.345703125 132.139648438 138.7734375 125 183 c 0
 117.26953125 230.887695312 161.473632812 263.254882812 200 273 c 0
 250.016601562 285.651367188 299.959960938 307.184570312 353 300 c 0
 432.26171875 289.263671875 608 267.857421875 608 153 c 0
 608 136.262695312 584.263671875 80.509765625 569 84 c 0
 507.624023438 98.0341796875 509.172851562 156.3984375 500 213 c 0
 487.825195312 288.125976562 510.194335938 363.1328125 515 438 c 0
 520.60546875 525.326171875 578.646484375 786.6796875 704 807 c 0
 718.310546875 809.319335938 730.153320312 803.063476562 743 804 c 0
 752.227539062 804.672851562 776.97265625 795.561523438 785 792 c 0
 794 774 l 1025
EndSplineSet
EndChar
StartChar: uni09B0
Encoding: 2480 2480 139
Width: 745
Flags: W
LayerCount: 2
Fore
SplineSet
215 219 m 0
 219.98828125 206.489257812 224 192.015625 224 177 c 0
 224 172.6015625 226.029296875 144 218 144 c 0
 203.66015625 144 149 176.709960938 149 195 c 0
 149 198.740234375 156.327148438 207.3984375 158 210 c 0
 206 222 l 1025
-1 783 m 0
 114.681640625 771.323242188 235.475585938 757.235351562 353 756 c 0
 432.180664062 755.16796875 512.294921875 754.00390625 587 774 c 0
 817.446289062 835.682617188 62 411 62 411 c 0
 62 419.958007812 94.8515625 426 101 426 c 0
 240.868164062 426 611 287.520507812 611 123 c 0
 611 99 l 0
 611 92.9775390625 604.793945312 72.701171875 599 78 c 0
 590.565429688 85.7138671875 583.396484375 95.2998046875 578 105 c 0
 553.143554688 149.678710938 544.663085938 202.677734375 545 255 c 0
 545.720703125 367.032226562 533.885742188 490.668945312 593 585 c 0
 617.102539062 623.461914062 631.236328125 659.046875 653 699 c 0
 662.501953125 716.443359375 683.500976562 760.119140625 688 781 c 0
 746 781 l 1029
EndSplineSet
EndChar
StartChar: uni09B2
Encoding: 2482 2482 140
Width: 630
Flags: W
LayerCount: 2
Fore
SplineSet
137 244 m 1
 127 174 l 0
 122.499023438 167.3984375 118.68359375 152 111 152 c 0
 73.6416015625 172.943359375 35.0810546875 191.663085938 47 242 c 0
 49.541015625 252.73046875 43 281.369140625 43 296 c 0
 35.0986328125 359.43359375 90.12109375 409.1328125 153 400 c 0
 243.540039062 408.758789062 309.982421875 323.686523438 327 244 c 0
 332.314453125 219.115234375 339 191.951171875 339 168 c 0
 339 160.56640625 332.206054688 118 323 118 c 0
 271.50390625 144.80078125 244.96875 205.796875 245 264 c 0
 247.627929688 321.629882812 282.540039062 371.666015625 329 408 c 0
 341.961914062 418.13671875 366.064453125 430 383 430 c 0
 462.9765625 430 521 263.493164062 521 202 c 0
 521 189.889648438 516.297851562 130 497 130 c 0
 428.557617188 130 387 390.825195312 387 444 c 0
 387 655.731445312 506.14453125 659.8203125 585 802 c 0
 631 778 l 1025
-1 784 m 0
 68.6142578125 802.6640625 181.4296875 793.030273438 263 796 c 0
 321.040039062 796 378.751953125 788 437 788 c 0
 462.616210938 788 489.698242188 789.342773438 515 790 c 1024
EndSplineSet
EndChar
StartChar: uni09B6
Encoding: 2486 2486 141
Width: 596
Flags: W
LayerCount: 2
Fore
SplineSet
-1 784 m 0
 100.0859375 766.19921875 206.021484375 671.645507812 175 562 c 0
 165.0625 526.875 177.237304688 474 127 474 c 0
 99.3466796875 486.833007812 60.31640625 508.11328125 69 546 c 0
 86.6708984375 623.095703125 124.768554688 670 217 670 c 0
 278.368164062 670 323 620.841796875 323 558 c 0
 323 545.84765625 310.08984375 474 291 474 c 0
 225.985351562 481.8359375 194.217773438 540.6640625 187 600 c 0
 185.42578125 612.9375 181 627.99609375 181 642 c 0
 179.994140625 652.052734375 183.291992188 662.974609375 187 674 c 0
 200.395507812 725.846679688 239.186523438 787.830078125 303 782 c 0
 414.900390625 802.31640625 512.73046875 709.88671875 491 596 c 0
 475.001953125 457.54296875 469.7734375 315.612304688 415 188 c 0
 405.90234375 158.456054688 400.979492188 128.017578125 387 102 c 0
 376.065429688 81.6484375 369 87.134765625 369 114 c 0
 405.372070312 287.786132812 408.905273438 471.78125 475 642 c 0
 480.650390625 656.552734375 549 762 549 762 c 0
 597 786 l 1025
EndSplineSet
EndChar
StartChar: uni09B7
Encoding: 2487 2487 142
Width: 628
Flags: W
LayerCount: 2
Fore
SplineSet
31 788 m 1
 291 784 l 0
 405 772 l 0
 583 768 l 0
 629 772 l 1025
267 566 m 1
 273 566 l 0
 303.974609375 542.854492188 334.426757812 522.323242188 359 494 c 1024
-1 782 m 0
 65.9833984375 686.67578125 254.369140625 649.620117188 275 530 c 0
 247.96875 446.922851562 112.801757812 448.770507812 47 396 c 0
 47 396 363 274.95703125 363 114 c 0
 363 108.861328125 361.305664062 98 357 98 c 0
 344.405273438 141.203125 319.577148438 182.684570312 327 232 c 0
 332.719726562 412.688476562 314.818359375 717.844726562 543 764 c 0
 553.426757812 769.791015625 568.151367188 769.166992188 581 772 c 1024
EndSplineSet
EndChar
StartChar: uni09B8
Encoding: 2488 2488 143
Width: 656
Flags: W
LayerCount: 2
Fore
SplineSet
361 348 m 0
 444.2265625 313.875 502.501953125 227.774414062 485 138 c 0
 482.606445312 125.719726562 491.645507812 102 477 102 c 0
 401.615234375 102 415 154.96875 415 212 c 0
 415 244 l 0
 422.849609375 314.1640625 431.670898438 385.248046875 447 456 c 0
 473.21875 577.013671875 520.790039062 680.78515625 563 792 c 0
 645 790 l 0
 657 782 l 1025
-1 786 m 0
 21.470703125 773.090820312 55.1875 784 81 784 c 0
 208.928710938 784 334.485351562 802 461 802 c 0
 466.37890625 802 520.39453125 786.529296875 511 781 c 4
 376.045898438 701.572265625 247.030273438 613.283203125 121 528 c 0
 108.130859375 519.291992188 51 488.797851562 51 478 c 0
 51 476.666992188 54.5556640625 478 55 478 c 0
 64.1826171875 478 74.763671875 480 85 480 c 0
 198.692382812 480 373 459.919921875 373 310 c 0
 373 221.47265625 305.8828125 128 213 128 c 0
 150.788085938 128 111.216796875 171.475585938 59 194 c 0
 43 234 l 1025
EndSplineSet
EndChar
StartChar: uni09BC
Encoding: 2492 2492 146
Width: 0
Flags: W
LayerCount: 2
Fore
SplineSet
-374 35 m 1
 -367.239583736 43.9701757138 -353.66195312 50 -338 50 c 0
 -317 50 -300 35 -300 16 c 0
 -300 -3 -317 -18 -338 -18 c 1025
-338 -18 m 1
 -359 -18 -376 -3 -376 16 c 0
 -376 23.6166218582 -368.056553902 30.7500772696 -354 37 c 1029
EndSplineSet
EndChar
StartChar: uni09BD
Encoding: 2493 2493 145
Width: 496
Flags: W
LayerCount: 2
Fore
SplineSet
-1 784 m 0
 87.1835595378 741.011859903 272.502050149 757.166055676 285 632 c 0
 285 616.401717693 260.361838307 556 243 556 c 0
 231.182685321 556 149 578.817087691 149 584 c 0
 180.009936909 595.263235224 190.908354702 625.168376734 215 648 c 0
 240.973481042 672.615036736 286.844783302 700 325 700 c 0
 388.730544777 700 467 647.357730998 467 580 c 0
 467 442.745454793 349.847586184 348 217 348 c 0
 192.958228248 348 101 353.380325331 101 386 c 0
 101 400.979538492 109.978253196 450 133 450 c 0
 289.77534188 450 242.601033243 92 359 92 c 0
 369.705324288 92 379.729226744 97.0914180451 391 100 c 0
 407 108 l 1025
EndSplineSet
EndChar
StartChar: uni09BE
Encoding: 2494 2494 150
Width: 358
Flags: W
LayerCount: 2
Fore
SplineSet
-1 782 m 0
 111.427734375 749.595703125 208.981445312 649.999023438 209 530 c 0
 209.004882812 498.958007812 215 460.719726562 215 428 c 0
 215.924804688 395.452148438 209.224609375 365.012695312 206 335 c 0
 195.770507812 282.741210938 188 230.360351562 173 179 c 0
 169.625 167.444335938 150.908203125 98 149 98 c 0
 137.360351562 118.478515625 121.39453125 140.700195312 125 167 c 0
 117.907226562 199.813476562 101.15234375 232.75 104 269 c 0
 105.883789062 292.977539062 98 316.500976562 98 341 c 0
 106.444335938 428.146484375 150.372070312 503.5703125 176 584 c 0
 214.693359375 705.432617188 274.883789062 720.552734375 359 785 c 1024
EndSplineSet
EndChar
StartChar: uni09BF
Encoding: 2495 2495 151
Width: 358
Flags: W
LayerCount: 2
Fore
SplineSet
217 815 m 4
 156.681473813 844.073195673 103 876.384742021 103 998 c 0
 103 1093.86018498 292.890574038 1133 412 1133 c 0
 653.123357341 1133 734.719516375 878 934 878 c 0
 940 878 l 0
 1000 902 l 1025
-1 782 m 0
 111.427734375 749.595703125 208.981124513 649.999023387 209 530 c 0
 209.004882812 498.958007812 214.070686768 460.706526615 215 428 c 0
 215.924804688 395.452148438 211.798652826 364.623227558 206 335 c 0
 195.770507813 282.741210938 188.000496404 230.360206583 173 179 c 0
 169.625 167.444335938 149.942923093 96.3410439409 149 98 c 0
 137.360351563 118.478515625 130.608461345 141.053433891 125 167 c 0
 117.907226562 199.813476562 101.152030201 232.750024633 104 269 c 0
 105.883789062 292.977539062 95.6371559182 316.61518675 98 341 c 0
 106.444335937 428.146484375 150.371859282 503.570379743 176 584 c 0
 214.693359375 705.432617188 274.883789062 720.552734375 359 785 c 1024
EndSplineSet
EndChar
StartChar: uni09C0
Encoding: 2496 2496 152
Width: 240
Flags: W
LayerCount: 2
Fore
SplineSet
-8 821 m 4
 -4.0811052893 821 -0.401806141115 820 6 820 c 0
 18.5276431985 820 64 824.512605266 64 881 c 0
 64 915.995434062 -16.8271373679 929 -29 929 c 0
 -172.222871884 929 -307.90615909 854 -455 854 c 0
 -519.993540875 854 -536 924.935480992 -536 971 c 0
 -536 1108.34445216 -346.179970353 1203.73866678 -221 1217 c 0
 46.3600865005 1245.32363027 208.370568269 1006.24767427 157 758 c 0
 142.531717851 688.082194625 189.466129098 80 112 80 c 0
 76.4088552937 80 76.0826390215 198.319492351 73 227 c 0
 60.2732136918 345.408509562 95.8603798718 459.779633079 103 578 c 0
 109.714710291 689.184558863 144.922363055 738.005301424 214 821 c 0
 241 827 l 1025
EndSplineSet
EndChar
StartChar: uni09C1
Encoding: 2497 2497 153
Width: 0
Flags: W
LayerCount: 2
Fore
SplineSet
-140 84 m 4
 -159.364570156 29.5044807521 -223.066516283 4.43884089411 -266 -30 c 4
 -314.24005726 -68.6954775821 -375.928537969 -84 -440 -84 c 4
 -484.807506001 -84 -530 -52.97080841 -530 -6 c 4
 -530 18.4053324408 -524.211921283 30 -500 30 c 4
 -365.920252515 30 -274.21485523 -66.6240693013 -164 -114 c 4
 -122 -120 l 1029
EndSplineSet
EndChar
StartChar: uni09C2
Encoding: 2498 2498 154
Width: 0
Flags: W
LayerCount: 2
Fore
SplineSet
-291 88 m 4
 -332.906499072 70.4010056605 -362.551649905 23.7846392132 -387 -14 c 4
 -387 -31.7292976732 -349.88197242 -62 -339 -62 c 4
 -283.067716926 -62 -233.841136062 10 -195 10 c 4
 -170.180922272 10 -157.283513199 -14.9395109044 -141 -26 c 4
 -3 -128 l 1029
EndSplineSet
EndChar
StartChar: uni09C3
Encoding: 2499 2499 155
Width: 0
Flags: W
LayerCount: 2
Fore
SplineSet
-129 93 m 4
 -148.751584663 97.0813984787 -106.579335261 76.2918291434 -141 87 c 4
 -453 -27 l 4
 -255 -33 l 4
 -189 -63 l 4
 -141 -93 l 1029
EndSplineSet
EndChar
StartChar: uni09C4
Encoding: 2500 2500 156
Width: 0
Flags: W
LayerCount: 2
Fore
SplineSet
-156 9 m 1
 -156 3 l 0
 -190.705997762 -10.9754277813 -219.031920982 -37.0586056364 -252 -53 c 0
 -265.477655367 -61.6548569891 -306.156728591 -87.9248123659 -270 -71 c 0
 -203.413258816 -65.2244505186 -135.789521308 -102.766484783 -88 -147 c 1024
-98 93 m 0
 -157.17977757 54.4417563297 -232.043785322 1.61121721131 -300 -17 c 0
 -300 -24.9617195802 -165.047863115 -71.0811688249 -150 -77 c 0
 -118 -83 l 1025
EndSplineSet
EndChar
StartChar: uni09C7
Encoding: 2503 2503 157
Width: 418
Flags: W
LayerCount: 2
Fore
SplineSet
295 785 m 5
 419 781 l 1029
-1 785 m 5
 243 785 l 4
 197.35546875 733.928710938 150.805664062 680.059570312 115 625 c 4
 60.603515625 527.87109375 20.541015625 427.927734375 27 317 c 4
 31.666015625 236.856445312 19.6962890625 89 127 89 c 4
 138.224609375 89 155 89.17578125 155 105 c 4
 155 105 141.314453125 135.936523438 139 141 c 4
 91 153 l 1029
EndSplineSet
EndChar
StartChar: uni09C8
Encoding: 2504 2504 158
Width: 376
Flags: W
LayerCount: 2
Fore
SplineSet
4 945 m 4
 2.23997448774 895.960326358 79.7970229598 864.395902142 112 893 c 4
 149.151958002 926 175.007188813 926 208 926 c 4
 208 926 289.939693809 881.299762699 290 874 c 4
 290.710479596 788 264.045641727 758.609128345 376 781 c 1028
-1 785 m 1
 243 785 l 0
 197.35546875 733.928710938 147.092429988 682.303383839 115 625 c 0
 60.603515625 527.87109375 20.5417048681 427.927774505 27 317 c 0
 31.666015625 236.856445312 19.6962890625 89 127 89 c 0
 138.224609375 89 155 89.17578125 155 105 c 0
 155 105 141.314453125 135.936523438 139 141 c 0
 91 153 l 1025
EndSplineSet
EndChar
StartChar: uni09CD
Encoding: 2509 2509 175
Width: 0
Flags: WO
LayerCount: 2
Fore
SplineSet
-180 -84 m 0
 -174.84158018 -87.9718630392 -163.931576561 -95.3827604813 -162 -105 c 0
 -129 -159 l 1025
EndSplineSet
EndChar
StartChar: uni09CE
Encoding: 2510 2510 174
Width: 361
Flags: W
LayerCount: 2
Fore
SplineSet
190.884765625 514 m 1
 200.884765625 514 l 0
 275.594726562 503.997070312 288.680664062 594.87109375 304.884765625 650 c 0
 333.217773438 746.392578125 235.116210938 774 158.884765625 774 c 0
 86.193359375 760.442382812 63.638671875 704.35546875 54.884765625 642 c 0
 5.9208984375 421.828125 341.973632812 380.35546875 308.884765625 174 c 0
 300.338867188 137.0625 284.217773438 100.421875 246.884765625 94 c 0
 235.842773438 92.1005859375 226.443359375 90 216.884765625 90 c 0
 198.131835938 90 188.577148438 98.890625 172.884765625 104 c 0
 146.884765625 124 l 1025
EndSplineSet
EndChar
StartChar: uni09D7
Encoding: 2519 2519 159
Width: 376
Flags: W
LayerCount: 2
Fore
SplineSet
-304 967 m 4
 -305.760025512 917.960326358 -224.429131076 882.642456045 -196 915 c 0
 -163.492036748 952 -140.868709788 952 -112 952 c 0
 -112 952 -30.0252098057 907.299968272 -30 900 c 0
 -29.6199760298 789.956989247 -39.0121842115 763.629205278 16 781 c 4
 164.896378386 828.015919489 204.169215701 640.876827915 209 530 c 4
 210.351184438 498.9874283 214.070686768 460.706526615 215 428 c 0
 215.924804688 395.452148438 211.798652826 364.623227558 206 335 c 0
 195.770507813 282.741210938 188.000496404 230.360206583 173 179 c 0
 169.625 167.444335938 149.942923093 96.3410439409 149 98 c 0
 137.360351563 118.478515625 130.608461345 141.053433891 125 167 c 0
 117.907226562 199.813476562 101.152030201 232.750024633 104 269 c 0
 105.883789062 292.977539062 95.6371559182 316.61518675 98 341 c 0
 106.444335937 428.146484375 150.371859282 503.570379743 176 584 c 0
 214.693359375 705.432617188 274.883789062 720.552734375 359 785 c 1024
EndSplineSet
EndChar
StartChar: uni09DC
Encoding: 2524 2524 147
Width: 490
LayerCount: 2
Fore
SplineSet
341 784 m 1
 491 786 l 1025
-1 784 m 0
 18.3330078125 784 37.6669921875 784 57 784 c 0
 142.286132812 784 228.513671875 790 313 790 c 0
 269.180664062 790 91 557.779296875 91 460 c 0
 91 456.940429688 97.388671875 458 99 458 c 0
 155.876953125 458 220.967773438 588 303 588 c 0
 377.733398438 588 411 499.102539062 411 440 c 0
 411 355.029296875 352.326171875 80 247 80 c 0
 153.556640625 80 126.374023438 194.786132812 73 246 c 0
 25 420 l 0
 19 474 l 1025
208 41 m 1
 214.760742188 49.9697265625 228.337890625 56 244 56 c 0
 265 56 282 41 282 22 c 0
 282 3 265 -12 244 -12 c 1025
244 -12 m 1
 223 -12 206 3 206 22 c 0
 206 29.6162109375 213.943359375 36.75 228 43 c 1029
EndSplineSet
EndChar
StartChar: uni09DD
Encoding: 2525 2525 148
Width: 512
LayerCount: 2
Fore
SplineSet
261 778 m 1
 417 774 l 0
 495 778 l 0
 513 782 l 1025
-1 782 m 0
 1.6669921875 782 4.3330078125 782 7 782 c 0
 56.826171875 776.165039062 106.87109375 775.165039062 157 776 c 0
 304.000976562 821.114257812 191.3125 686.364257812 187 618 c 0
 174.400390625 569.146484375 178.728515625 519.694335938 169 470 c 0
 159.461914062 421.28125 155 367.442382812 155 318 c 0
 155 244.751953125 160.487304688 94 261 94 c 0
 351.409179688 94 391 173.252929688 391 258 c 0
 391 301.10546875 356.55859375 356 311 356 c 0
 280.388671875 356 273 305.096679688 273 282 c 0
 273 260.282226562 292.484375 256 311 256 c 0
 328.227539062 252.444335938 337.740234375 268.696289062 339 284 c 1024
238 65 m 1
 244.760742188 73.9697265625 258.337890625 80 274 80 c 0
 295 80 312 65 312 46 c 4
 312 27 295 12 274 12 c 1025
274 12 m 1
 253 12 236 27 236 46 c 0
 236 53.6162109375 243.943359375 60.75 258 67 c 1029
EndSplineSet
EndChar
StartChar: uni09DF
Encoding: 2527 2527 149
Width: 898
LayerCount: 2
Fore
SplineSet
68 789 m 1
 86 789 l 0
 201.129882812 789 58.7431640625 791.764648438 179 780 c 0
 356 762 l 0
 518 768 l 0
 668 786 l 0
 899 783 l 1025
17 777 m 0
 181.5546875 718.17578125 419.836914062 758.841796875 542 624 c 0
 542 512.540039062 -1 443.64453125 -1 324 c 0
 -1 329.416015625 59 327 59 327 c 0
 112.743164062 329.158203125 158.099609375 298.770507812 209 291 c 0
 293.947265625 278.03125 593 174.180664062 593 63 c 0
 593 60.6962890625 590.947265625 54 587 54 c 0
 567.616210938 54 554 160.716796875 554 168 c 0
 554 379.149414062 666.016601562 569.543945312 719 759 c 0
 749 789 l 1025
216 181 m 1
 222.760742188 189.969726562 236.337890625 196 252 196 c 0
 273 196 290 181 290 162 c 0
 290 143 273 128 252 128 c 1029
252 128 m 1
 231 128 214 143 214 162 c 0
 214 169.616210938 221.943359375 176.75 236 183 c 1029
EndSplineSet
EndChar
StartChar: uni09E6
Encoding: 2534 2534 162
Width: 535
Flags: W
LayerCount: 2
Fore
SplineSet
107 541 m 1
 147.681640625 682.12890625 208.71875 772 277 772 c 0
 391.947265625 772 485 601.038085938 485 391 c 0
 485 228.151367188 381.2109375 95.599609375 253 95.599609375 c 0
 140.815429688 95.599609375 50 272.57421875 50 490 c 0
 50 584.6953125 80.4375 671.5859375 131 739 c 1025
EndSplineSet
EndChar
StartChar: uni09E7
Encoding: 2535 2535 163
Width: 400
Flags: W
LayerCount: 2
Fore
SplineSet
95 769 m 0
 95.75 765.400390625 95.75 762.400390625 95 760 c 0
 51.126953125 518.073242188 356.708007812 438.806640625 350 208 c 0
 348.453125 154.758789062 282.041015625 100 230 100 c 0
 184.521484375 100 50 94.81640625 50 172 c 0
 50 203.684570312 77.4775390625 201.698242188 95 220 c 0
 110 223 l 1025
EndSplineSet
EndChar
StartChar: uni09E8
Encoding: 2536 2536 164
Width: 445
Flags: W
LayerCount: 2
Fore
SplineSet
50 754 m 0
 93.70703125 626.874023438 196.233398438 529.712890625 308 463 c 0
 249.254882812 433.0859375 181.260742188 417.254882812 116 403 c 0
 8.1484375 379.442382812 262.809570312 193.834960938 329 133 c 0
 395 85 l 1025
EndSplineSet
EndChar
StartChar: uni09E9
Encoding: 2537 2537 165
Width: 509
Flags: W
LayerCount: 2
Fore
SplineSet
275 559 m 0
 285.598632812 557.889648438 254.081054688 559.154296875 257 559 c 0
 214.58984375 559 194 637.283203125 194 670 c 0
 194 717.732421875 255.313476562 718 293 718 c 0
 430.913085938 718 458 534.979492188 458 436 c 0
 474.3046875 289.3515625 380.8125 167.456054688 245 136 c 0
 140.825195312 111.87109375 96.0751953125 255.5546875 89 337 c 0
 53 484 l 0
 50 568 l 0
 53 604 l 1025
EndSplineSet
EndChar
StartChar: uni09EA
Encoding: 2538 2538 166
Width: 428
Flags: W
LayerCount: 2
Fore
SplineSet
200 661 m 0
 199.10546875 665.412109375 195.09375 662.67578125 191 664 c 0
 128.240234375 670.064453125 55.1337890625 614.944335938 53 553 c 0
 48.0087890625 522.428710938 65.4716796875 498.220703125 89 484 c 0
 157.251953125 393.440429688 298.77734375 377.698242188 356 280 c 0
 364.734375 265.086914062 377 257.100585938 377 241 c 0
 389.979492188 160.416992188 335.03125 89.2900390625 260 73 c 0
 220.487304688 59.9599609375 176.322265625 74.6318359375 137 94 c 0
 92.31640625 116.009765625 50 137.450195312 50 199 c 0
 50 361.236328125 356 354.502929688 356 523 c 0
 356 647.298828125 265.452148438 630.243164062 206 700 c 0
 119 703 l 1025
EndSplineSet
EndChar
StartChar: uni09EB
Encoding: 2539 2539 167
Width: 601
Flags: W
LayerCount: 2
Fore
SplineSet
263.03515625 706 m 0
 145.608398438 665.099609375 47.8798828125 547.12109375 50.03515625 421 c 0
 56.859375 236.765625 215.719726562 32.55078125 416.03515625 88 c 0
 441.58984375 95.07421875 551.03515625 103.338867188 551.03515625 139 c 0
 415.599609375 127.249023438 269.189453125 220.166015625 293.03515625 373 c 0
 285.9609375 474.616210938 390.430664062 552.677734375 485.03515625 544 c 0
 591.407226562 533.336914062 363.655273438 592.0078125 341.03515625 625 c 0
 328.723632812 642.95703125 238.118164062 692.950195312 215.03515625 703 c 0
 113.03515625 778 l 1025
EndSplineSet
EndChar
StartChar: uni09EC
Encoding: 2540 2540 168
Width: 460
Flags: W
LayerCount: 2
Fore
SplineSet
212 751 m 1
 212 745 l 0
 212 652.40625 131 556.24609375 131 463 c 0
 131 463 298.33984375 511 317 511 c 0
 376.188476562 461.942382812 417.7265625 388.375 410 310 c 0
 403.795898438 247.072265625 396.4140625 121 305 121 c 0
 172.708007812 121 154.817382812 231.408203125 77 289 c 0
 62 382 l 0
 53 451 l 0
 50 577 l 1025
EndSplineSet
EndChar
StartChar: uni09ED
Encoding: 2541 2541 169
Width: 355
Flags: W
LayerCount: 2
Fore
SplineSet
278 538 m 0
 241.866210938 507.415039062 212.489257812 446.672851562 155 448 c 0
 115.850585938 448 50 568.912109375 50 610 c 0
 51.9501953125 649.64453125 66.2939453125 688.717773438 98 715 c 0
 131.409179688 756.020507812 177.796875 778.49609375 230 763 c 0
 274.0703125 749.91796875 288.967773438 728.0625 305 682 c 0
 293 589 l 0
 272 448 l 0
 269 112 l 1025
EndSplineSet
EndChar
StartChar: uni09EE
Encoding: 2542 2542 170
Width: 490
Flags: W
LayerCount: 2
Fore
SplineSet
62.6259765625 748 m 1
 62.6259765625 742 l 0
 62.6259765625 681.295898438 50.6259765625 615.0078125 50.6259765625 553 c 0
 47.2255859375 480.814453125 58.4580078125 409.900390625 65.6259765625 340 c 0
 84.3984375 271.826171875 64.4140625 182.715820312 116.625976562 130 c 0
 146.479492188 103.276367188 162.475585938 51.0087890625 209.625976562 64 c 0
 287.712890625 85.5146484375 386.625976562 113.418945312 386.625976562 217 c 0
 367.821289062 347.514648438 211.020507812 339.7578125 122.625976562 403 c 0
 87.958984375 427.801757812 83.7822265625 453.311523438 161.625976562 433 c 0
 440.625976562 436 l 1025
EndSplineSet
EndChar
StartChar: uni09EF
Encoding: 2543 2543 171
Width: 535
Flags: W
LayerCount: 2
Fore
SplineSet
203 238 m 1
 203 232 l 0
 203 222.172851562 178.4453125 145 152 145 c 0
 122.764648438 145 53 262.150390625 53 298 c 0
 53 312.638671875 50 327.493164062 50 343 c 0
 50 382.185546875 82.1728515625 454 128 454 c 0
 251.245117188 454 335 373.517578125 335 253 c 0
 335 175.87890625 248 24.2001953125 248 73 c 0
 248 112.528320312 485 176.3203125 485 310 c 0
 485 554.337890625 202.58984375 554.411132812 65 673 c 4
 83 781 l 1025
EndSplineSet
EndChar
StartChar: uni09F1
Encoding: 2545 2545 173
Width: 649
Flags: W
LayerCount: 2
Fore
SplineSet
33 320 m 0
 170.776393591 311.478586292 428.693486641 -29.4709141274 362 89 c 1024
-1 783 m 4
 5.9775390625 783 10.9111328125 783 17 783 c 4
 131.666015625 783 247.073242188 804 362 804 c 4
 369.302349669 804 502.264105977 786.92856735 496 781 c 4
 362.356757637 654.515396118 246.845267927 453.417437687 50 411 c 4
 40.23828125 408.896484375 -1 408 -1 408 c 4
 10.634765625 417.689453125 21.4587741075 420.194152917 38 417 c 4
 135.579101563 398.157226563 217.654111953 330.29338346 296 267 c 4
 350.391601562 223.05859375 398.364769474 170.027955296 440 117 c 4
 448.63671875 106 487.966813584 65.0376928126 473 69 c 4
 438.000976562 78.265625 427.517172434 129.383760388 425 165 c 4
 421.278320312 217.659179688 424.041947327 271.012963206 422 324 c 4
 419.401367187 391.432617188 434.530028391 457.589672018 452 522 c 4
 521 781 l 5
 650 789 l 1029
EndSplineSet
EndChar
